<?xml version="1.0" standalone="no"?>
<!DOCTYPE svg PUBLIC "-//W3C//DTD SVG 1.1//EN" "http://www.w3.org/Graphics/SVG/1.1/DTD/svg11.dtd" >
<svg xmlns="http://www.w3.org/2000/svg">
<metadata>
This is a custom SVG font generated by IcoMoon.
<iconset grid="14"></iconset>
</metadata>
<defs>
<font id="icomoon" horiz-adv-x="448" >
<font-face units-per-em="448" ascent="384" descent="-64" />
<missing-glyph horiz-adv-x="448" />
<glyph class="hidden" unicode="&#xf000;" d="M0,384L 448 -64L0 -64 z" horiz-adv-x="0" />
<glyph unicode="&#xe000;" d="M 415.813,222.25q0-5.5 -6.5-12l-90.75-88.5l 21.5-125q 0.25-1.75 0.25-5q0-5.25 -2.625-8.875t-7.625-3.625q-4.75,0 -10,3l-112.25,59l-112.25-59q-5.5-3 -10-3q-5.25,0 -7.875,3.625t-2.625,8.875q0,1.5 0.5,5l 21.5,125l-91,88.5q-6.25,6.75 -6.25,12q0,9.25 14,11.5l 125.5,18.25l 56.25,113.75q 4.75,10.25 12.25,10.25t 12.25-10.25l 56.25-113.75 l 125.5-18.25q 14-2.25 14-11.5z" horiz-adv-x="415.625"  />
<glyph unicode="&#xe001;" d="M 284.063,133l 76.5,74.25l-105.5,15.5l-47.25,95.5l-47.25-95.5l-105.5-15.5l 76.5-74.25l-18.25-105.25l 94.5,49.75l 94.25-49.75zM 415.813,222.25q0-5.5 -6.5-12l-90.75-88.5l 21.5-125q 0.25-1.75 0.25-5q0-12.5 -10.25-12.5q-4.75,0 -10,3l-112.25,59l-112.25-59q-5.5-3 -10-3q-5.25,0 -7.875,3.625t-2.625,8.875q0,1.5 0.5,5l 21.5,125 l-91,88.5q-6.25,6.75 -6.25,12q0,9.25 14,11.5l 125.5,18.25l 56.25,113.75q 4.75,10.25 12.25,10.25t 12.25-10.25l 56.25-113.75l 125.5-18.25q 14-2.25 14-11.5z" horiz-adv-x="415.625"  />
<glyph unicode="&#xe002;" d="M 287.813,176q0,46.25 -32.875,79.125t-79.125,32.875t-79.125-32.875t-32.875-79.125t 32.875-79.125t 79.125-32.875t 79.125,32.875t 32.875,79.125zM 415.813-32q0-13 -9.5-22.5t-22.5-9.5q-13.5,0 -22.5,9.5l-85.75,85.5q-44.75-31 -99.75-31q-35.75,0 -68.375,13.875t-56.25,37.5t-37.5,56.25t-13.875,68.375 t 13.875,68.375t 37.5,56.25t 56.25,37.5t 68.375,13.875t 68.375-13.875t 56.25-37.5t 37.5-56.25t 13.875-68.375q0-55 -31-99.75l 85.75-85.75q 9.25-9.25 9.25-22.5z" horiz-adv-x="415.625"  />
<glyph unicode="&#xe003;" d="M 417.75,242.5q0-10 -7-17l-181-181l-34-34q-7-7 -17-7t-17,7l-34,34l-90.5,90.5q-7,7 -7,17t 7,17l 34,34q 7,7 17,7t 17-7l 73.5-73.75l 164,164.25q 7,7 17,7t 17-7l 34-34q 7-7 7-17z"  />
<glyph unicode="&#xe004;" d="M 324.375,53.5q0-10 -7-17l-34-34q-7-7 -17-7t-17,7l-73.5,73.5l-73.5-73.5q-7-7 -17-7t-17,7l-34,34q-7,7 -7,17t 7,17l 73.5,73.5l-73.5,73.5q-7,7 -7,17t 7,17l 34,34q 7,7 17,7t 17-7l 73.5-73.5l 73.5,73.5q 7,7 17,7t 17-7l 34-34q 7-7 7-17 t-7-17l-73.5-73.5l 73.5-73.5q 7-7 7-17z" horiz-adv-x="351.75"  />
<glyph unicode="&#xe005;" d="M 383.625,160q0-39 -15.25-74.5t-41-61.25t-61.25-41t-74.5-15.25t-74.5,15.25t-61.25,41t-41,61.25t-15.25,74.5q0,45.5 20.125,85.75t 56.625,67.5q 10.75,8 23.875,6.25t 20.875-12.5q 8-10.5 6.125-23.625t-12.375-21.125q-24.5-18.5 -37.875-45.25t-13.375-57q0-26 10.125-49.625t 27.375-40.875t 40.875-27.375 t 49.625-10.125t 49.625,10.125t 40.875,27.375t 27.375,40.875t 10.125,49.625q0,30.25 -13.375,57t-37.875,45.25q-10.5,8 -12.375,21.125t 6.125,23.625q 7.75,10.75 21,12.5t 23.75-6.25q 36.5-27.25 56.625-67.5t 20.125-85.75zM 223.625,352l0-160 q0-13 -9.5-22.5t-22.5-9.5t-22.5,9.5t-9.5,22.5l0,160 q0,13 9.5,22.5t 22.5,9.5t 22.5-9.5t 9.5-22.5z" horiz-adv-x="383.25"  />
<glyph unicode="&#xe006;" d="M 255.624,160q0,26.5 -18.75,45.25t-45.25,18.75t-45.25-18.75t-18.75-45.25t 18.75-45.25t 45.25-18.75t 45.25,18.75t 18.75,45.25zM 383.625,187.25l0-55.5 q0-3 -2-5.75t-5-3.25l-46.25-7q-4.75-13.5 -9.75-22.75q 8.75-12.5 26.75-34.5q 2.5-3 2.5-6.25t-2.25-5.75q-6.75-9.25 -24.75-27t-23.5-17.75q-3,0 -6.5,2.25l-34.5,27q-11-5.75 -22.75-9.5 q-4-34 -7.25-46.5q-1.75-7 -9-7l-55.5,0 q-3.5,0 -6.125,2.125t-2.875,5.375l-7,46q-12.25,4 -22.5,9.25l-35.25-26.75q-2.5-2.25 -6.25-2.25q-3.5,0 -6.25,2.75q-31.5,28.5 -41.25,42q-1.75,2.5 -1.75,5.75q0,3 2,5.75q 3.75,5.25 12.75,16.625t 13.5,17.625q-6.75,12.5 -10.25,24.75l-45.75,6.75q-3.25,0.5 -5.25,3.125t-2,5.875l0,55.5 q0,3 2,5.75t 4.75,3.25 l 46.5,7q 3.5,11.5 9.75,23q-10,14.25 -26.75,34.5q-2.5,3 -2.5,6q0,2.5 2.25,5.75q 6.5,9 24.625,26.875t 23.625,17.875q 3.25,0 6.5-2.5l 34.5-26.75q 11,5.75 22.75,9.5q 4,34 7.25,46.5q 1.75,7 9,7l 55.5,0 q 3.5,0 6.125-2.125t 2.875-5.375l 7-46q 12.25-4 22.5-9.25l 35.5,26.75q 2.25,2.25 6,2.25q 3.25,0 6.25-2.5q 32.25-29.75 41.25-42.5q 1.75-2 1.75-5.5 q0-3 -2-5.75q-3.75-5.25 -12.75-16.625t-13.5-17.625q 6.5-12.5 10.25-24.5l 45.75-7q 3.25-0.5 5.25-3.125t 2-5.875z" horiz-adv-x="383.25"  />
<glyph unicode="&#xe007;" d="M 127.875,200l0-144 q0-3.5 -2.25-5.75t-5.75-2.25l-16,0 q-3.5,0 -5.75,2.25t-2.25,5.75l0,144 q0,3.5 2.25,5.75t 5.75,2.25l 16,0 q 3.5,0 5.75-2.25t 2.25-5.75zM 191.875,200l0-144 q0-3.5 -2.25-5.75t-5.75-2.25l-16,0 q-3.5,0 -5.75,2.25t-2.25,5.75l0,144 q0,3.5 2.25,5.75t 5.75,2.25l 16,0 q 3.5,0 5.75-2.25t 2.25-5.75zM 255.875,200l0-144 q0-3.5 -2.25-5.75t-5.75-2.25l-16,0 q-3.5,0 -5.75,2.25t-2.25,5.75l0,144  q0,3.5 2.25,5.75t 5.75,2.25l 16,0 q 3.5,0 5.75-2.25t 2.25-5.75zM 287.875,19l0,237 l-224,0 l0-237 q0-5.5 1.75-10.125t 3.625-6.75t 2.625-2.125l 208,0 q 0.75,0 2.625,2.125t 3.625,6.75t 1.75,10.125zM 119.875,288l 112,0 l-12,29.25q-1.75,2.25 -4.25,2.75l-79.25,0 q-2.5-0.5 -4.25-2.75zM 351.875,280l0-16 q0-3.5 -2.25-5.75t-5.75-2.25l-24,0 l0-237 q0-20.75 -11.75-35.875t-28.25-15.125l-208,0  q-16.5,0 -28.25,14.625t-11.75,35.375l0,238 l-24,0 q-3.5,0 -5.75,2.25t-2.25,5.75l0,16 q0,3.5 2.25,5.75t 5.75,2.25l 77.25,0 l 17.5,41.75q 3.75,9.25 13.5,15.75t 19.75,6.5l 80,0 q 10,0 19.75-6.5t 13.5-15.75l 17.5-41.75l 77.25,0 q 3.5,0 5.75-2.25t 2.25-5.75z" horiz-adv-x="351.75"  />
<glyph unicode="&#xe008;" d="M 175.938,128q0,13.25 -9.375,22.625t-22.625,9.375t-22.625-9.375t-9.375-22.625q0-9.25 4.75-16.75t 12.75-11.75l-17.25-57.25q-1.25-3.75 1.25-7t 6.5-3.25l 48,0 q 4,0 6.5,3.25t 1.25,7l-17.25,57.25q 8,4.25 12.75,11.75t 4.75,16.75zM 79.938,192l 128,0 l0,48 q0,26.5 -18.75,45.25t-45.25,18.75t-45.25-18.75t-18.75-45.25l0-48 zM 287.938,168l0-144 q0-10 -7-17 t-17-7l-240,0 q-10,0 -17,7t-7,17l0,144 q0,10 7,17t 17,7l 8,0 l0,48 q0,46 33,79t 79,33t 79-33t 33-79l0-48 l 8,0 q 10,0 17-7t 7-17z" horiz-adv-x="287.875"  />
<glyph unicode="&#xe009;" d="M 95.875,96l0-32 l-32,0 l0,32 l 32,0 zM 95.875,288l0-32 l-32,0 l0,32 l 32,0 zM 287.875,288l0-32 l-32,0 l0,32 l 32,0 zM 31.874,32.25l 96,0 l0,95.75 l-96,0 l0-95.75 zM 31.874,224l 96,0 l0,96 l-96,0 l0-96 zM 223.875,224l 96,0 l0,96 l-96,0 l0-96 zM 159.875,160l0-160 l-160,0 l0,160 l 160,0 zM 287.875,32l0-32 l-32,0 l0,32 l 32,0 zM 351.875,32l0-32 l-32,0 l0,32 l 32,0 z M 351.875,160l0-96 l-96,0 l0,32 l-32,0 l0-96 l-32,0 l0,160 l 96,0 l0-32 l 32,0 l0,32 l 32,0 zM 159.875,352l0-160 l-160,0 l0,160 l 160,0 zM 351.875,352l0-160 l-160,0 l0,160 l 160,0 z" horiz-adv-x="351.75"  />
<glyph unicode="&#xe00a;" d="M 111.625,272q0,13.25 -9.375,22.625t-22.625,9.375t-22.625-9.375t-9.375-22.625t 9.375-22.625t 22.625-9.375t 22.625,9.375t 9.375,22.625zM 378.375,128q0-13.25 -9.25-22.5l-122.75-123q-9.75-9.25 -22.75-9.25q-13.25,0 -22.5,9.25l-178.75,179q-9.5,9.25 -16.125,25.25t-6.625,29.25l0,104 q0,13 9.5,22.5t 22.5,9.5l 104,0 q 13.25,0 29.25-6.625t 25.5-16.125 l 178.75-178.5q 9.25-9.75 9.25-22.75z" horiz-adv-x="383.25"  />
<glyph unicode="&#xe00b;" d="M 290.687,352q 5.75,0 11-2.25q 8.25-3.25 13.125-10.25t 4.875-15.5l0-322.25 q0-8.5 -4.875-15.5t-13.125-10.25q-4.75-2 -11-2q-12,0 -20.75,8l-110.25,106l-110.25-106q-9-8.25 -20.75-8.25q-5.75,0 -11,2.25q-8.25,3.25 -13.125,10.25t-4.875,15.5l0,322.25 q0,8.5 4.875,15.5t 13.125,10.25q 5.25,2.25 11,2.25l 262,0 z" horiz-adv-x="319.375"  />
<glyph unicode="&#xe00c;" d="M 208,376l0-334.75 l-112.25-59q-5.5-3 -10-3q-5.25,0 -7.875,3.625t-2.625,8.875q0,1.5 0.5,5l 21.5,125l-91,88.5q-6.25,6.75 -6.25,12q0,9.25 14,11.5l 125.5,18.25l 56.25,113.75q 4.75,10.25 12.25,10.25z" horiz-adv-x="224"  />
<glyph unicode="&#xe00d;" d="M 352,192q0-34.75 -23.5-64.25t-64.125-46.625t-88.375-17.125q-21.5,0 -44,4q-31-22 -69.5-32q-9-2.25 -21.5-4l-0.75,0 q-2.75,0 -5.125,2t-2.875,5.25q-0.25,0.75 -0.25,1.625t 0.125,1.625t 0.5,1.5l 0.625,1.25t 0.875,1.375t 1,1.25t 1.125,1.25t 1,1.125q 1.25,1.5 5.75,6.25t 6.5,7.375t 5.625,7.25t 6.25,9.625t 5.125,11q-31,18 -48.75,44.25t-17.75,56 q0,34.75 23.5,64.25t 64.125,46.625t 88.375,17.125t 88.375-17.125t 64.125-46.625t 23.5-64.25zM 448,128q0-30 -17.75-56.125t-48.75-44.125q 2.5-6 5.125-11t 6.25-9.625t 5.625-7.25t 6.5-7.375t 5.75-6.25q 0.25-0.25 1-1.125t 1.125-1.25t 1-1.25t 0.875-1.375l 0.625-1.25t 0.5-1.5t 0.125-1.625t-0.25-1.625q-0.75-3.5 -3.25-5.5t-5.5-1.75 q-12.5,1.75 -21.5,4q-38.5,10 -69.5,32q-22.5-4 -44-4q-67.75,0 -118,33q 14.5-1 22-1q 40.25,0 77.25,11.25t 66,32.25q 31.25,23 48,53t 16.75,63.5q0,19.25 -5.75,38q 32.25-17.75 51-44.5t 18.75-57.5z"  />
<glyph unicode="&#xe00e;" d="M 255.624,40l0,16 q0,3.5 -2.25,5.75t-5.75,2.25l-24,0 l0,120 q0,3.5 -2.25,5.75t-5.75,2.25l-80,0 q-3.5,0 -5.75-2.25t-2.25-5.75l0-16 q0-3.5 2.25-5.75t 5.75-2.25l 24,0 l0-96 l-24,0 q-3.5,0 -5.75-2.25t-2.25-5.75l0-16 q0-3.5 2.25-5.75t 5.75-2.25l 112,0 q 3.5,0 5.75,2.25t 2.25,5.75zM 223.625,232l0,48 q0,3.5 -2.25,5.75t-5.75,2.25l-48,0 q-3.5,0 -5.75-2.25t-2.25-5.75l0-48 q0-3.5 2.25-5.75 t 5.75-2.25l 48,0 q 3.5,0 5.75,2.25t 2.25,5.75zM 383.625,160q0-52.25 -25.75-96.375t-69.875-69.875t-96.375-25.75t-96.375,25.75t-69.875,69.875t-25.75,96.375t 25.75,96.375t 69.875,69.875t 96.375,25.75t 96.375-25.75t 69.875-69.875t 25.75-96.375z" horiz-adv-x="383.25"  />
<glyph unicode="&#xe00f;" d="M 223.625,40l0,48 q0,3.25 -2.375,5.625t-5.625,2.375l-48,0 q-3.25,0 -5.625-2.375t-2.375-5.625l0-48 q0-3.25 2.375-5.625t 5.625-2.375l 48,0 q 3.25,0 5.625,2.375t 2.375,5.625zM 287.625,208q0,24.25 -14.625,43t-36.125,27.875t-45.25,9.125t-45.25-9.125t-36.125-27.875t-14.625-43l0-2.75 l0-3.25 t 0.25-2.875t 0.75-2.875t 1.375-2t 2.25-1.75 t 3.375-0.5l 48,0 q 3.5,0 5.75,2.25t 2.25,5.75q0,3 2.75,6.75q 4.75,7.75 12.625,12.5t 16.625,4.75q 9.75,0 20.75-5.375t 11-14.375q0-8.25 -6.625-14.5t-15.875-11t-18.625-10.375t-16-15.875t-6.625-24.5l0-2.75 l0-3.25 t 0.25-2.875t 0.75-2.875t 1.375-2t 2.25-1.75t 3.375-0.5l 48,0 q 4.25,0 6,2.625t 2,6.125t 3.375,8.25t 9.375,8q 15,8.25 17.5,9.75q 15.5,11 24.625,27 t 9.125,34.25zM 383.625,160q0-52.25 -25.75-96.375t-69.875-69.875t-96.375-25.75t-96.375,25.75t-69.875,69.875t-25.75,96.375t 25.75,96.375t 69.875,69.875t 96.375,25.75t 96.375-25.75t 69.875-69.875t 25.75-96.375z" horiz-adv-x="383.25"  />
<glyph unicode="&#xe010;" d="M 191.625,352q 52.25,0 96.375-25.75t 69.875-69.875t 25.75-96.375t-25.75-96.375t-69.875-69.875t-96.375-25.75t-96.375,25.75t-69.875,69.875t-25.75,96.375t 25.75,96.375t 69.875,69.875t 96.375,25.75zM 223.625,40.25l0,47.5 q0,3.5 -2.25,5.875t-5.5,2.375l-48,0 q-3.25,0 -5.75-2.5t-2.5-5.75l0-47.5 q0-3.25 2.5-5.75t 5.75-2.5l 48,0  q 3.25,0 5.5,2.375t 2.25,5.875zM 223.125,126.25l 4.5,155.25q0,3 -2.5,4.5q-2.5,2 -6,2l-55,0 q-3.5,0 -6-2q-2.5-1.5 -2.5-4.5l 4.25-155.25q0-2.5 2.5-4.375t 6-1.875l 46.25,0 q 3.5,0 5.875,1.875t 2.625,4.375z" horiz-adv-x="383.25"  />
<glyph unicode="&#xe011;" d="M 286.875,103.5q0,6.5 -4.75,11.25l-45.25,45.25l 45.25,45.25q 4.75,4.75 4.75,11.25q0,6.75 -4.75,11.5l-22.5,22.5q-4.75,4.75 -11.5,4.75q-6.5,0 -11.25-4.75l-45.25-45.25l-45.25,45.25q-4.75,4.75 -11.25,4.75q-6.75,0 -11.5-4.75l-22.5-22.5q-4.75-4.75 -4.75-11.5q0-6.5 4.75-11.25l 45.25-45.25l-45.25-45.25q-4.75-4.75 -4.75-11.25q0-6.75 4.75-11.5l 22.5-22.5q 4.75-4.75 11.5-4.75 q 6.5,0 11.25,4.75l 45.25,45.25l 45.25-45.25q 4.75-4.75 11.25-4.75q 6.75,0 11.5,4.75l 22.5,22.5q 4.75,4.75 4.75,11.5zM 383.625,160q0-52.25 -25.75-96.375t-69.875-69.875t-96.375-25.75t-96.375,25.75t-69.875,69.875t-25.75,96.375t 25.75,96.375t 69.875,69.875t 96.375,25.75t 96.375-25.75t 69.875-69.875t 25.75-96.375z" horiz-adv-x="383.25"  />
<glyph unicode="&#xe012;" d="M 448,206.5l0-198.5 q0-16.5 -11.75-28.25t-28.25-11.75l-368,0 q-16.5,0 -28.25,11.75t-11.75,28.25l0,198.5 q 11-12.25 25.25-21.75q 90.5-61.5 124.25-86.25q 14.25-10.5 23.125-16.375t 23.625-12t 27.5-6.125l 0.25,0 l 0.25,0 q 12.75,0 27.5,6.125t 23.625,12t 23.125,16.375q 42.5,30.75 124.5,86.25q 14.25,9.75 25,21.75zM 448,280q0-19.75 -12.25-37.75t-30.5-30.75 q-94-65.25 -117-81.25q-2.5-1.75 -10.625-7.625t-13.5-9.5t-13-8.125t-14.375-6.75t-12.5-2.25l-0.25,0 l-0.25,0 q-5.75,0 -12.5,2.25t-14.375,6.75t-13,8.125t-13.5,9.5t-10.625,7.625q-22.75,16 -65.5,45.625t-51.25,35.625q-15.5,10.5 -29.25,28.875t-13.75,34.125q0,19.5 10.375,32.5t 29.625,13l 368,0 q 16.25,0 28.125-11.75t 11.875-28.25z"  />
<glyph unicode="&#xe013;" d="M 169.124-14.25q0-9.5 -2.5-17.75l-95,0 q-23.75,0 -42.875,14.125t-25.875,36.875q 6,11.25 17.25,19.375t 25,12.375t 26.75,6t 26.75,1.75q 8,0 12.25-0.5q 1.5-1 7.625-5.25t 8.25-5.75t 7.75-5.75t 8-6.375t 6.875-6.375t 6.625-7.375t 5.25-7.625t 4.375-8.625t 2.375-9t 1.125-10.125zM 95.875,73.5q-58.5-1.75 -96.25-21.25l0,108.25 q 25.75-29.5 68.25-29.5 q 8,0 17.5,1.25q-5.25-15.25 -5.25-21.5q0-16.75 15.75-37.25zM 139.125,201.25q0-25 -10.875-40.125t-35.125-15.125q-12.75,0 -24.25,6.5t-19.5,16.875t-14,23.375t-8.875,26t-2.875,24.75q0,24 12.875,41.25t 36.125,17.25q 16.5,0 29.75-10.25t 21-26t 11.75-32.5t 4-32zM 383.625,224l0-184 q0-29.75 -21.125-50.875t-50.875-21.125l-117,0  q 9.75,18.25 9.75,39.25q0,16.5 -5.5,30.625t-13.875,23.25t-18,17.75t-18,14.875t-13.875,13.625t-5.5,14.875q0,9 5.75,17t 14,15.375t 16.375,16.125t 13.875,23.25t 5.75,32.75t-6.625,36.375t-18.875,29.625q-1.5,1.5 -3.5,2.75t-3.125,1.875t-2.5,2.375t-2.625,4.25l 33.75,0 l 33.75,16l-109.25,0 q-34.5,0 -61.125-9.625t-45.625-33.375q0,31.5 20.25,53.25t 51.75,21.75l 240,0  q 29.75,0 50.875-21.125t 21.125-50.875l0-24 l-64,0 l0,64 l-32,0 l0-64 l-64,0 l0-32 l 64,0 l0-64 l 32,0 l0,64 l 64,0 z" horiz-adv-x="383.25"  />
<glyph unicode="&#xe014;" d="M 287.688,320l-256,0 l0-310.5 l 105.75,101.5l 22.25,21.25l 22.25-21.25l 105.75-101.5l0,310.5 zM 290.687,352q 5.75,0 11-2.25q 8.25-3.25 13.125-10.25t 4.875-15.5l0-322.25 q0-8.5 -4.875-15.5t-13.125-10.25q-4.75-2 -11-2q-12,0 -20.75,8l-110.25,106l-110.25-106q-9-8.25 -20.75-8.25q-5.75,0 -11,2.25q-8.25,3.25 -13.125,10.25t-4.875,15.5l0,322.25  q0,8.5 4.875,15.5t 13.125,10.25q 5.25,2.25 11,2.25l 262,0 z" horiz-adv-x="319.375"  />
<glyph unicode="&#xe015;" d="M 382.392,318.392 C 424.7,276.084 448,219.832 448,159.999 C 448,100.167 424.7,43.916 382.392,1.608 C 340.084-40.7 283.832-64 224-64 C 164.168-64 107.916-40.7 65.608,1.608 C 23.3,43.916 0,100.167 0,159.999 C 0,219.832 23.299,276.084 65.608,318.392 C 107.916,360.7 164.168,384 224,384 C 283.832,384 340.084,360.7 382.392,318.392 Z M 362.593,21.406 C 390.181,48.995 408.524,83.36 416.087,120.746 C 410.192,112.067 404.554,108.848 401.062,128.273 C 397.465,159.944 368.377,139.713 350.086,150.962 C 330.834,137.987 287.564,176.189 294.918,133.102 C 306.264,113.667 356.171,159.111 331.295,117.99 C 315.425,89.283 273.264,25.707 278.749-7.248 C 279.441-55.261 229.69-17.26 212.549-1.333 C 201.018,30.569 208.619,86.33 178.469,101.954 C 145.743,103.375 117.654,106.349 104.971,142.935 C 97.338,169.11 113.093,208.076 141.143,214.092 C 182.202,239.889 196.869,183.881 235.376,182.839 C 247.332,195.349 279.92,199.327 282.622,213.355 C 257.357,217.813 314.677,234.599 280.204,244.147 C 261.186,241.91 248.932,224.427 259.043,209.603 C 222.189,201.010 221.008,262.936 185.582,243.403 C 184.682,212.52 127.735,233.391 165.879,239.653 C 178.985,245.379 144.503,261.972 163.132,258.957 C 172.282,259.454 203.089,270.25 194.752,277.508 C 211.907,288.157 226.322,252.006 243.113,278.332 C 255.235,298.573 238.029,302.31 222.834,292.050 C 214.268,301.642 237.959,322.358 258.855,331.31 C 265.819,334.294 272.471,335.92 277.556,335.459 C 288.082,323.3 307.547,321.194 308.565,336.921 C 282.498,349.405 253.757,356 224,356 C 181.29,356 140.669,342.427 107.053,317.329 C 116.087,313.191 121.216,308.038 112.512,301.45 C 105.75,281.301 78.313,254.254 54.226,258.083 C 41.72,236.516 33.484,212.756 29.963,187.852 C 50.137,181.178 54.788,167.968 50.453,163.549 C 40.174,154.586 33.856,141.88 30.601,127.971 C 37.168,87.792 56.052,50.762 85.407,21.406 C 122.427-15.613 171.646-36 224-36 C 276.353-36 325.574-15.613 362.593,21.406 Z"  />
<glyph unicode="&#xe016;" d="M 297.875,248.25q 2.75,1.75 6.25,5.5l0-0.25 q0-0.5 -2.375-2.5t-2.875-3q-0.25,0.25 -1,0.25zM 296.375,248q-0.25,0.25 -0.625,0.75t-0.375,0.75q 0.75-0.5 2.5-1.25q-1.5-1 -1.5-0.25zM 181.625,293.75q-4,0.5 -6.5,1.25q 0.25,0 1.625-0.25t 2.625-0.5t 2.25-0.5zM 192.875,303q 1.75,1 3.375,0.625t 1.875-1.875q-1.25,0.75 -5.25,1.25zM 190.874,301.5l-0.75,0.5q-0.5,0.75 -1.375,1.25t-1.125,0.5q 0.5-0.25 5.25-0.75 q-1.5-1 -2-1.5zM 165.375,322.5l0,0.5 q 0.25-0.5 0.75-1.375t 0.75-1.375zM 139.125,312.5q0-0.5 -0.25-0.5l-0.25,0.5l 0.5,0 zM 232.874,51.5l0-0.25 l0,0.25 zM 191.625,352q 52.25,0 96.375-25.75t 69.875-69.875t 25.75-96.375t-25.75-96.375t-69.875-69.875t-96.375-25.75t-96.375,25.75t-69.875,69.875t-25.75,96.375t 25.75,96.375t 69.875,69.875t 96.375,25.75zM 309.625,40.5 l 1.25,1.25q-1.75,2.5 -7.25,3q 0.25,3 -3.5,6.625t-6.75,3.875q0,1 -2.625,2.75t-4.375,2q-2.25,0.5 -6.75-2.25q-1.75-0.75 -1-1.25q-0.75,0.75 -3,2.75t-4,2.75q-0.5,0.25 -1.875,0.25t-2.125,0.5q-0.25,0.25 -1.5,1.125t-1.75,1.125t-1.625,0.75t-1.875,0.375t-1.875-0.625t-2.125-1.5t-1.125-3.875t-0.625-3.625q-2,1.5 -0.125,5t 0.375,5q-1.75,1.75 -5.25,0.125t-5.25-3.875 q-0.25-0.25 -2.375-1.375t-2.875-1.875q-1-1.5 -2.25-4.375t-1.5-3.375q0,0.5 -0.625,1.625t-0.625,1.625q-3-0.5 -4,0.75q 1.25-4 2-4.25l-1,0.5q-0.25-1.5 0.75-3.75t 1-2.75q 0.25-1.25 -0.375-3.25t-0.625-2.75q0-0.5 1.25-2.75q 1-4.75 -0.5-8q0-0.25 -0.875-1.75t-1.625-2.75l-0.5-1.25l-0.5,0.25q-0.25,0.25 -0.5,0q-0.25-1.5 -2.25-3.25t-2.5-2.75q-3.75-5.75 -2.25-9.5 q 0.75-2 2.5-2.5q 0.75-0.25 0.75,0.5q 0.25-2.25 -2.75-6.75q 0.25-0.25 1-0.75q-4.25,0 -2.5-3.5q 50.5,9 88,45.25l-0.75,0 zM 169.625,86.75q 4,0.75 7.625-4t 5.625-5.75q 10.25-5 14.75-2.75q0-2.25 3.5-7q 0.75-1 1.625-2.875t 1.375-2.625q 1.25-1.75 4.75-4t 4.75-4q 1.5,0.75 2.25,2.25q 3.25-8.75 6-8.5q 1.25,0 2,2q0-0.25 -0.125-0.75t-0.375-0.75q 1.75,3.75 1.25,6.5l 1.5,1q 1.25,1 1.25,1.25 q-1.5,1.5 -2.25-0.75q-7.5-3.5 -12,5.5q-0.5,0.75 -1.125,2t-1.25,3t-0.375,2.875t 1.5,1.125q 2.75,0 3.125,0.375t-0.625,1.5t-1,1.875q-0.25,1 -0.375,3.125t-0.375,3.125l-1.25,1.5q-1.25,1.5 -2.875,3.375t-1.875,2.375q-1-2.5 -4.125-2.125t-4.625,2.375q 0.25-0.5 -0.125-1.625t-0.375-1.625q-3.5,0 -4.25,0.25q 0.25,1.5 0.75,5.25t 1,5.5q 0.25,1.25 1.375,3.375t 2,3.875t 1.125,3.5 t-1.125,2.625t-4.625,0.625q-5-0.25 -7.25-5.5q-0.25-0.75 -0.75-2.875t-1.25-3.125t-2.25-1.75q-2-0.75 -6.75-0.5t-6.5,1.25q-3.5,2 -6,7.625t-2.75,10.375q0,2.5 0.75,6.875t 0.75,6.75t-1.5,6.625q 0.75,0.5 2.5,2.625t 2.75,2.875q 0.5,0.5 1.25,0.5l 1.25,0 t 1,0.5t 0.75,1.5q-0.25,0.25 -1,0.75q-0.75,0.75 -1,0.75q 1-0.75 4.75-0.25t 4.75,0.5q0,0.25 5.5,0q 4.25-3.25 6,0.5q0,0.25 -0.625,2.625t-0.125,3.625 q 1.25-7.25 8-2.5q 0.75-1 4.125-1.5t 4.625-1.25q 0.75-0.5 1.75-1.375t 1.5-1.25t 1.5-0.125t 2.25,1.75q 2.75-4.25 3.25-6.25q 2.75-10.75 5-12q 2-0.5 3.125-0.5t 1.25,2.625t0,3.875t-0.375,3.25l-0.5,9.25q-4,0.75 -5,3.125t 0.375,5t 4.125,4.875q 0.25,0.25 4.125,2t 5.375,3q 6,4.75 4.25,9.75q 2.25-0.5 2.75,2.25l-1.25,0.75q-1,0.75 -2,1.375t-1.25,0.375q 2.75,1.75 0.5,4.5q 1.25,0.75 2,2.875 t 2.25,2.875q 2.25-3.5 5.5-0.75q 2,2.25 0.5,4.5q 1.25,2 5.5,2.875t 5,2.375q 1.25-0.25 1.75,0t 0.5,1.125l0,1.875 t 0.25,2.125t 0.75,1.875q 1,1.5 4,2.625t 3.5,1.375l 4.75,3q 1,1 0,1q 4.5-0.5 8,2.75q 3.25,3 -1.25,5.75q 0.5,1.75 -1,2.625t-4,1.375q 0.75,0.25 3,0.125t 3,0.375q 3.75,2.75 -1.75,4.25q-5,1.25 -11.75-3.25q-0.75-0.5 -3.25-3t-4.25-2.75q 3.75,4.5 1.25,5.5q 2-0.25 5.625,2.25t 3.875,2.75 q 1,0.5 2.625,0.625t 2.125,0.375q 17.75,6.25 23-0.25q 2,2.75 2.75,3.75t 2.375,2.25t 3.875,2q 5.25,1.75 5.75,2.25l 0.25,5.75q-3-0.25 -4.5,2t-1.75,5.5l-1.5-2q0,1.5 -0.875,1.875t-1.875,0.125t-2.375-0.5t-1.875,0q-2.25,0.5 -4.875,3.875t-3.625,4.125q 2.25,0 2.25,1.25q-0.5,1.25 -2.5,2q 0.25,1.5 -0.5,2t-2.25,0q-0.5,3 -0.25,3.25q-1.5,0.25 -2.75,2.75t-2,2.5q-0.5,0 -1.125-0.5t-1.25-1.375l-1.25-1.75 t-0.875-1.375l-0.5-0.5q-3,1.5 -6-2.5q-2.25,0.25 -4.25-0.5q 3.75,1.5 0.5,3.25q-2.75,1.25 -5.25,0.5q 3,1.25 2.5,3.5t-3,4q 0.25,0 1-0.25t 1-0.25q-0.25,1.25 -2.375,2.375t-4.875,2.25t-3.5,1.625q-1.75,1.25 -9,2.625t-9,0.375q-1.25-0.75 -1.5-1.5t 0.375-2.125t 0.875-2.125q 1.5-5.75 1.25-6.75q-0.25-0.75 -2.125-2t-1.375-3q 0.25-1 2.875-2.5t 3.125-3q 1.25-3.25 -1-6.25 q-1-1.25 -3.75-2.75t-3.5-2.5q-1.25-1.25 -0.875-2.875t 0.125-2.375q 0.25,0.25 0.25,0.625t 0.25,0.625q0-3.25 2.75-5.5q 2-1.5 -4-4.5q-5-2.75 -5-1q 0.25,2 -1.875,4t-2.625,3t-0.875,4.75t-2.375,5.25q-1.5,1 -4.75,1t-4.5-1.25q0,2.5 -12.25,7.5q-4.25,2 -14.5,1q 1.75,0.25 0,4.25q-2,4 -5.25,3q-2,6.25 -1,8.75q 0.5,1.25 2.25,3.5t 2.25,3.75q 0.25,0.75 3.875,1.5t 4.125,2 q 0.25,1 -0.625,1.625t-2.375,1.125q 13.25-1.5 15.75,4.5q 1.25,2.25 0.75,3.5q0-0.25 0.5-0.25t 0.5-0.25q 3,0.75 1.75,4.25q 4.75,2 6.5,2q 1.25-0.25 2.75-1.5t 2.5-1.25q 4.25-0.75 5.375,2.5t-2.375,5.75q 1.75-1 1.75,1.5q-0.25,3.25 -1.75,4.75q-0.75,0.5 -1.625,0.625t-1.625,0t-1.75,0.125q-0.25,0 -2,0.5q-0.25-0.25 -0.5-0.25l-2,0 q-1-0.5 -1-1.25l0-0.25 q-0.25-0.75 1-1.5l 1.25-0.25l 0.75-0.5q-0.25,0 -0.625-0.625t-0.625-0.625 q0-0.75 0.75-1.25q-0.5-0.25 -3.5-1.875t-4.25-2.625q-0.25-0.25 -1-0.625t-1-0.625q-0.5-0.25 -1,0.5t-1,2.25t-1,2.875t-1.125,2.5t-1.375,1.125q-3,0 -4.5-4.25q 0.75,2.5 -3.25,4.375t-6.25,1.875q 5,3.75 -2.25,7.5l-0.25,0.25q-7.5-1 -11.25-1.75q-0.5-1.5 0.75-3q-0.25-1.75 1.5-2.25q0-0.25 0.125-0.25t 0.125-0.25q0,0.25 -0.125,0.25t-0.125,0.25q 0.75-0.25 2.625-0.375t 2.375-0.375 q 0.75-0.25 1.125-0.5l 1.875-1.25t 1.375-1.5t-0.625-1.25q-0.5-0.25 -2.25-1t-3.125-1.375t-1.625-0.875q-0.75-1.25 0-4t-0.5-3.75q-1.25,1.25 -2.5,4.625t-2,4.375q 2-2.25 -7.5-1.5l-2,0.25q-1,0 -3.75-0.5t-4-0.25q-1.75,0 -7.25,1.5q 1.75,4.25 1.25,6.25q 1.25,0 1.75,0.5l-1.5,0.75q-0.75-0.25 -6.25-2.25q 0.5-0.75 2-2.375t 2.25-2.875q-5.5,1.5 -6.75-0.5q0-0.25 -2.25,0q-6.25,0.25 -6-1.75 q 0.25-1 2.25-3q0-2.25 -0.25-2.25q-6.75,5.5 -7.5,5.75q-43-20.75 -69-62q 0.25-0.5 0.625-2.75t 0.875-2.125t 2.75,1.125q 2.25-2.25 0.75-5.25q 0.5,0.5 9-5.25q 14-10 5.5-13.25l0,1.375 t 0.25,1.625q-2.25-0.25 -4.75,1.25q-0.75-1.5 0.125-5t 2.875-3.5q-2,0 -2.625-4.25t-0.625-9.625t-0.25-6.375l 0.5-0.25q-0.75-3.25 1.5-9.375t 6-5.125q-1-4.5 1.25-5.25q-0.25-1 0-2 t 1.125-2.125t 1.5-1.75l 1.875-1.875l 1.5-1.5q 7-2.75 10.25-7.25q 1-1.5 2.625-6.125t 3.875-6.375q-0.5-1.5 2.5-5.375t 2.75-6.375q-0.25,0 -0.625-0.125t-0.625-0.125q 0.75-2 4.125-4t 4.125-3.5q 0.5-0.75 0.625-2.625t 0.75-3t 2.125-0.625q 0.75,6 -6.5,17q-4,6.75 -4.5,7.75q-0.75,1.25 -1.375,4.125t-1.125,3.875q 6.75-2.25 6.5-3.25q-1.25-2.5 6.5-13 q 0.5-0.75 2.5-2.5t 2.75-3q 0.75-1 2.375-3.625t 2.625-3.875q-0.25,0 -0.75-0.5l-0.75-0.75q 1-0.5 2.25-1.25t 2-1.125t 1.875-1.25t 1.875-1.875q 4-4.5 5-8.25q 0.25-1 0.125-3.875t 0.375-4.125q 0.5-1.5 1.5-2.75t 2.875-2.5t 2.875-1.75t 3.625-1.625t 2.875-1.375q 0.5-0.25 4.5-2.75t 6.25-3.5q 2.5-1 4.125-1.125t 4,0.625t 3.875,1z" horiz-adv-x="383.25"  />
<glyph unicode="&#xe017;" d="M 378,384 C 416.659,384 448,352.66 448,314 C 448,298.241 442.789,283.7 434,272 L 406,244 L 308,342 L 336,370 C 347.7,378.789 362.24,384 378,384 ZM 28,62L0-64l 126,28l 259,259L 287,321L 28,62z M 313.065,224.935l-196-196l-24.131,24.131l 196,196L 313.065,224.935z"  />
<glyph unicode="&#xe018;" d="M0,328l0-364 l 448,0 L 448,328 L0,328 z M 420-8L 28-8 L 28,300 l 392,0 L 420-8 zM 308,230A42,42 3780 1 0 392,230A42,42 3780 1 0 308,230zM 392,20 L 56,20 L 140,244 L 252,104 L 308,146 Z"  />
<glyph unicode="&#xe019;" d="M 56,272l0-280 l 392,0 L 448,272 L 56,272 z M 420,38.666L 364,132l-63.466-52.889L 252,160L 84,20L 84,244 l 336,0 L 420,38.666 zM 112,174A42,42 8820 1 0 196,174A42,42 8820 1 0 112,174zM 392,328L0,328L0,48L 28,48L 28,300L 392,300 	z"  />
<glyph unicode="&#xe01a;" d="M 406,328L 42,328 C 18.9,328,0,309.1,0,286l0-252 c0-23.1, 18.9-42, 42-42l 364,0 c 23.1,0, 42,18.9, 42,42L 448,286 C 448,309.1, 429.1,328, 406,328z M 42,300
		l 364,0 c 7.589,0, 14-6.411, 14-14l0-42 L 28,244 l0,42 C 28,293.589, 34.411,300, 42,300z M 406,20L 42,20 c-7.589,0-14,6.411-14,14L 28,160 l 392,0 l0-126 
		C 420,26.411, 413.589,20, 406,20zM 56,104L 84,104L 84,48L 56,48zM 112,104L 140,104L 140,48L 112,48zM 168,104L 196,104L 196,48L 168,48z"  />
<glyph unicode="&#xe01b;" d="M 288.201,56.201L 196,148.402L 196,272L 252,272L 252,171.598L 327.799,95.799 	zM 224,384C 100.288,384,0,283.712,0,160s 100.288-224, 224-224s 224,100.288, 224,224S 347.712,384, 224,384z M 224-8
		c-92.784,0-168,75.216-168,168c0,92.784, 75.216,168, 168,168c 92.784,0, 168-75.216, 168-168C 392,67.216, 316.784-8, 224-8z"  />
<glyph unicode="&#xe01c;" d="M 351.875,32.75q0-30 -18.25-47.375t-48.5-17.375l-218.5,0 q-30.25,0 -48.5,17.375t-18.25,47.375q0,13.25 0.875,25.875t 3.5,27.25t 6.625,27.125t 10.75,24.375t 15.5,20.25t 21.375,13.375t 27.875,5q 2.25,0 10.5-5.375t 18.625-12t 27-12t 33.375-5.375t 33.375,5.375t 27,12t 18.625,12t 10.5,5.375q 15.25,0 27.875-5t 21.375-13.375t 15.5-20.25 t 10.75-24.375t 6.625-27.125t 3.5-27.25t 0.875-25.875zM 271.875,256q0-39.75 -28.125-67.875t-67.875-28.125t-67.875,28.125t-28.125,67.875t 28.125,67.875t 67.875,28.125t 67.875-28.125t 28.125-67.875z" horiz-adv-x="351.75"  />
<glyph unicode="&#xe01d;" d="M 252.102,257.444L 358.289,293.071L 447.357,27.603L 341.17-8.024zM0-8l 112,0 L 112,300 L0,300 L0-8 z M 28,244l 56,0 l0-28 L 28,216 L 28,244 zM 140-8l 112,0 L 252,300 L 140,300 L 140-8 z M 168,244l 56,0 l0-28 l-56,0 L 168,244 z"  />
<glyph unicode="&#xe01e;" d="M 320.625,200.5q0,7 -4.5,11.5l-22.75,22.5q-4.75,4.75 -11.25,4.75t-11.25-4.75l-102-101.75l-56.5,56.5q-4.75,4.75 -11.25,4.75t-11.25-4.75l-22.75-22.5q-4.5-4.5 -4.5-11.5q0-6.75 4.5-11.25l 90.5-90.5q 4.75-4.75 11.25-4.75q 6.75,0 11.5,4.75l 135.75,135.75q 4.5,4.5 4.5,11.25zM 383.625,160q0-52.25 -25.75-96.375t-69.875-69.875t-96.375-25.75t-96.375,25.75 t-69.875,69.875t-25.75,96.375t 25.75,96.375t 69.875,69.875t 96.375,25.75t 96.375-25.75t 69.875-69.875t 25.75-96.375z" horiz-adv-x="383.25"  />
<glyph unicode="&#xe01f;" d="M 196,328l0,7 c0,11.55-9.45,21-21,21l-70,0 c-11.55,0-21-9.45-21-21l0-7 L0,328 l0-56 l 84,0 l0-7 c0-11.55, 9.45-21, 21-21l 70,0 c 11.55,0, 21,9.45, 21,21l0,7 
		l 252,0 L 448,328 L 196,328 z M 112,272L 112,328 l 56,0 l0-56 L 112,272 zM 364,195c0,11.55-9.45,21-21,21l-70,0 c-11.55,0-21-9.45-21-21l0-7 L0,188 l0-56 l 252,0 l0-7 c0-11.55, 9.45-21, 21-21l 70,0 c 11.55,0, 21,9.45, 21,21l0,7 
		l 84,0 l0,56 l-84,0 L 364,195 z M 280,132l0,56 l 56,0 l0-56 L 280,132 zM 196,55c0,11.55-9.45,21-21,21l-70,0 c-11.55,0-21-9.45-21-21l0-7 L0,48 l0-56 l 84,0 l0-7 c0-11.55, 9.45-21, 21-21l 70,0 c 11.55,0, 21,9.45, 21,21l0,7 
		l 252,0 l0,56 L 196,48 L 196,55 z M 112-8l0,56 l 56,0 l0-56 L 112-8 z"  />
<glyph unicode="&#xe020;" d="M 364,300L 364,356 L 84,356 l0-56 L0,300 l0-28 l0-28 c0-46.392, 37.607-84, 84-84c 8.783,0, 17.251,1.35, 25.209,3.851
	c 20.201-28.878, 51.016-49.786, 86.791-57.048L 196,20 l-28,0 c-30.929,0-56-25.071-56-56l 224,0 c0,30.929-25.071,56-56,56l-28,0 l0,86.803 
	c 35.775,7.263, 66.59,28.169, 86.791,57.048C 346.749,161.35, 355.217,160, 364,160c 46.393,0, 84,37.608, 84,84l0,28 L 448,300 L 364,300 z M 84,193.25
	c-27.983,0-50.75,22.767-50.75,50.75l0,28 l 50.75,0 l0-28 c0-17.581, 3.251-34.401, 9.167-49.905C 90.191,193.55, 87.131,193.25, 84,193.25z M 414.75,244
	c0-27.983-22.767-50.75-50.75-50.75c-3.131,0-6.191,0.3-9.167,0.845C 360.749,209.599, 364,226.419, 364,244l0,28 l 50.75,0 L 414.75,244 z"  />
<glyph unicode="&#xe022;" d="M 305.301,240.916l-28.416,28.403L 134.781,127.245c-23.544-23.534-23.544-61.709,0-85.244
	c 23.539-23.534, 61.714-23.534, 85.257,0l 170.525,170.497c 39.25,39.227, 39.25,102.84,0,142.068
	c-39.229,39.245-102.861,39.245-142.092,0L 69.418,175.565l 0.015-0.014c-0.127-0.133-0.268-0.252-0.383-0.37
	c-54.732-54.73-54.732-143.437,0-198.146c 54.711-54.712, 143.442-54.712, 198.182,0c 0.12,0.12, 0.226,0.248, 0.359,0.383l 0.014-0.015
	l 122.208,122.19l-28.431,28.402L 239.181,5.818l-0.007,0 c-0.13-0.117-0.247-0.249-0.37-0.369
	c-38.97-38.963-102.366-38.963-141.346,0c-38.965,38.956-38.965,102.341,0,141.303c 0.133,0.133, 0.264,0.255, 0.389,0.37l-0.020,0.026
	l 179.060,179.010c 23.499,23.51, 61.751,23.51, 85.263,0c 23.499-23.509, 23.499-61.752,0-85.243L 191.624,70.422
	c-7.847-7.841-20.586-7.841-28.425,0c-7.829,7.825-7.829,20.576,0,28.402L 305.301,240.916z"  />
<glyph unicode="&#xe023;" d="M 224,300C 126.298,300, 41.614,243.107,0,160c 41.614-83.107, 126.298-140, 224-140c 97.7,0, 182.384,56.893, 224,140
	C 406.387,243.107, 321.7,300, 224,300z M 334.447,225.755c 26.321-16.789, 48.625-39.276, 65.377-65.754
	c-16.753-26.478-39.057-48.966-65.378-65.755C 301.374,73.15, 263.182,62, 224,62c-39.183,0-77.374,11.15-110.447,32.245
	C 87.233,111.033, 64.929,133.521, 48.176,160c 16.753,26.479, 39.057,48.967, 65.377,65.754c 1.714,1.094, 3.446,2.153, 5.188,3.194
	C 114.384,216.992, 112,204.089, 112,190.625c0-61.855, 50.145-112, 112-112s 112,50.145, 112,112c0,13.464-2.384,26.367-6.741,38.324
	C 331,227.909, 332.732,226.848, 334.447,225.755z M 224,204.625c0-23.196-18.804-42-42-42s-42,18.804-42,42s 18.804,42, 42,42
	S 224,227.821, 224,204.625z"  />
<glyph unicode="&#xe024;" d="M 367.203,254.318 C 401.173,230.242 429.053,197.84 448,160 C 406.384,76.893 321.7,20 224,20 C 196.627,20 170.279,24.468 145.61,32.724 L 179.715,66.83 C 194.178,63.636 209.016,62 224,62 C 263.182,62 301.374,73.15 334.445,94.245 C 360.766,111.035 383.071,133.523 399.823,160.001 C 383.613,185.623 362.192,207.492 336.976,224.092 L 367.203,254.318 ZM 224,78.625 C 214.058,78.625 204.421,79.927 195.244,82.359 L 332.263,219.377 C 334.696,210.201 336,200.567 336,190.625 C 336,128.769 285.856,78.625 224,78.625 ZM 420,384l-23.51,0 L 300.409,287.92C 276.314,295.762, 250.642,300, 224,300C 126.298,300, 41.614,243.107,0,160
		c 18.663-37.271, 45.993-69.26, 79.272-93.217L0-12.49L0-36 l 23.51,0 L 420,360.49L 420,384 z M 182,246.625c 21.019,0, 38.433-15.441, 41.515-35.599
		l-47.917-47.917C 155.441,166.192, 140,183.606, 140,204.625C 140,227.821, 158.804,246.625, 182,246.625z M 48.176,160
		c 16.753,26.479, 39.057,48.967, 65.377,65.754c 1.714,1.094, 3.446,2.153, 5.188,3.194C 114.384,216.992, 112,204.089, 112,190.625
		c0-25.604, 8.597-49.196, 23.055-68.058l-25.616-25.616C 84.908,113.419, 64.047,134.914, 48.176,160z"  />
<glyph unicode="&#xe025;" d="M 448,227.307 C 448,189.523 431.717,155.544 405.786,132 L 406,132 L 266-8 C 252-22 238-36 224-36 C 210-36 196-22 182-8 L 42,132 L 42.214,132 C 16.283,155.544 0,189.523 0,227.307 C 0,298.382 57.618,356 128.693,356 C 166.477,356 200.456,339.717 224,313.786 C 247.544,339.717 281.523,356 319.307,356 C 390.381,356 448,298.382 448,227.307 Z"  />
<glyph unicode="&#xe026;" d="M 448,227.307C 448,298.382, 390.381,356, 319.307,356C 281.523,356, 247.544,339.717, 224,313.786C 200.456,339.717, 166.477,356, 128.693,356
	C 57.618,356,0,298.382,0,227.307C0,189.523, 16.283,155.544, 42.214,132L 42,132 l 140-140c 14-14, 28-28, 42-28s 28,14, 42,28l 140,140l-0.214,0 
	C 431.717,155.544, 448,189.523, 448,227.307z M 368.142,173.461L 226.402,31.598c-0.734-0.734-1.545-1.545-2.402-2.397
	c-0.857,0.853-1.669,1.663-2.402,2.397L 79.858,173.46C 64.473,187.429, 56,206.552, 56,227.307C 56,267.39, 88.61,300, 128.693,300
	c 20.755,0, 39.878-8.473, 53.846-23.858L 224,230.476l 41.461,45.665C 279.43,291.527, 298.552,300, 319.307,300
	C 359.39,300, 392,267.39, 392,227.307C 392,206.552, 383.526,187.429, 368.142,173.461z"  />
<glyph unicode="&#xe027;" d="M 224-64c 123.712,0, 224,100.288, 224,224S 347.712,384, 224,384S0,283.712,0,160S 100.288-64, 224-64z M 224,342
		c 100.516,0, 182-81.484, 182-182s-81.484-182-182-182S 42,59.484, 42,160S 123.484,342, 224,342zM 224,122.043 C 274.728,122.043 322.976,135.52 364,159.195 C 357.624,81.128 297.006,20 224,20 C 150.995,20 90.378,81.194 84,159.258 C 125.024,135.584 173.272,122.043 224,122.043 ZM 112,230A28,42 3780 1 0 168,230A28,42 3780 1 0 112,230zM 280,230A28,42 3780 1 0 336,230A28,42 3780 1 0 280,230z"  />
<glyph unicode="&#xe028;" d="M 224-64c 123.712,0, 224,100.288, 224,224S 347.712,384, 224,384S0,283.712,0,160S 100.288-64, 224-64z M 224,342
		c 100.516,0, 182-81.484, 182-182s-81.484-182-182-182S 42,59.484, 42,160S 123.484,342, 224,342zM 112,244 C 112,259.464 124.536,272 140,272 C 155.464,272 168,259.464 168,244 C 168,228.536 155.464,216 140,216 C 124.536,216 112,228.536 112,244 Z M 280,244 C 280,259.464 292.536,272 308,272 C 323.464,272 336,259.464 336,244 C 336,228.536 323.464,216 308,216 C 292.536,216 280,228.536 280,244 ZM 308.043,109.574 L 344.061,87.963 C 319.578,47.245 274.973,20 224,20 C 173.027,20 128.422,47.245 103.939,87.963 L 139.957,109.574 C 157.096,81.072 188.319,62 224,62 C 259.681,62 290.904,81.072 308.043,109.574 Z"  />
<glyph unicode="&#xe029;" d="M 224-64c 123.712,0, 224,100.288, 224,224S 347.712,384, 224,384S0,283.712,0,160S 100.288-64, 224-64z M 224,342
		c 100.516,0, 182-81.484, 182-182s-81.484-182-182-182S 42,59.484, 42,160S 123.484,342, 224,342zM 112,244 C 112,259.464 124.536,272 140,272 C 155.464,272 168,259.464 168,244 C 168,228.536 155.464,216 140,216 C 124.536,216 112,228.536 112,244 Z M 280,244 C 280,259.464 292.536,272 308,272 C 323.464,272 336,259.464 336,244 C 336,228.536 323.464,216 308,216 C 292.536,216 280,228.536 280,244 ZM 336,132 L 336,104 L 308,104 L 308,62 C 308,38.804 289.196,20 266,20 C 242.804,20 224,38.804 224,62 L 224,104 L 112,104 L 112,132 L 336,132 Z"  />
<glyph unicode="&#xe02a;" d="M 224-64c 123.712,0, 224,100.288, 224,224S 347.712,384, 224,384S0,283.712,0,160S 100.288-64, 224-64z M 224,342
		c 100.516,0, 182-81.484, 182-182s-81.484-182-182-182S 42,59.484, 42,160S 123.484,342, 224,342zM 112,244 C 112,259.464 124.536,272 140,272 C 155.464,272 168,259.464 168,244 C 168,228.536 155.464,216 140,216 C 124.536,216 112,228.536 112,244 Z M 280,244 C 280,259.464 292.536,272 308,272 C 323.464,272 336,259.464 336,244 C 336,228.536 323.464,216 308,216 C 292.536,216 280,228.536 280,244 ZM 139.957,42.426 L 103.939,64.037 C 128.422,104.755 173.027,132 224,132 C 274.972,132 319.577,104.755 344.061,64.037 L 308.043,42.426 C 290.904,70.928 259.681,90 224,90 C 188.318,90 157.096,70.928 139.957,42.426 Z"  />
<glyph unicode="&#xe02b;" d="M 224-64c 123.712,0, 224,100.288, 224,224S 347.712,384, 224,384S0,283.712,0,160S 100.288-64, 224-64z M 224,342
		c 100.516,0, 182-81.484, 182-182s-81.484-182-182-182S 42,59.484, 42,160S 123.484,342, 224,342zM 237.449,72.925 C 298.807,85.047 346.434,112.975 363.647,150.185 C 354.174,76.704 292.983,20 218.9,20 C 166.732,20 120.963,48.123 95.135,90.415 C 125.94,66.327 180.244,61.624 237.449,72.925 ZM 280,230A28,42 3780 1 0 336,230A28,42 3780 1 0 280,230zM 154,221.469 C 135.714,221.469 120.166,214.619 114.399,205.062 C 112.851,207.629 112,219.139 112,222.016 C 112,235.607 130.804,246.625 154,246.625 C 177.196,246.625 196,235.607 196,222.016 C 196,219.139 195.149,207.629 193.601,205.062 C 187.834,214.619 172.286,221.469 154,221.469 Z"  />
<glyph unicode="&#xe02c;" d="M 224-64c 123.712,0, 224,100.288, 224,224S 347.712,384, 224,384S0,283.712,0,160S 100.288-64, 224-64z M 224,342
		c 100.516,0, 182-81.484, 182-182s-81.484-182-182-182S 42,59.484, 42,160S 123.484,342, 224,342zM 84,160l0-28 c0-61.6, 50.4-112, 112-112l 56,0 c 61.6,0, 112,50.4, 112,112l0,28 L 84,160 z M 168,52.818
	c-11.61,4.138-22.279,10.86-31.3,19.883C 120.772,88.626, 112,109.687, 112,132l 56,0 L 168,52.818 z M 252,48l-56,0 l0,84 l 56,0 L 252,48 z
	 M 311.3,72.7c-9.023-9.023-19.692-15.745-31.3-19.883L 280,132 l 56,0 C 336,109.687, 327.229,88.626, 311.3,72.7z M 98.591,216
	C 98.592,216, 98.591,216, 98.591,216c 4.274,0, 7.922,3.087, 8.629,7.302C 109.915,239.351, 123.701,251, 140,251
	s 30.085-11.649, 32.779-27.698c 0.707-4.214, 4.356-7.302, 8.628-7.302c 4.274,0, 7.922,3.087, 8.629,7.301
	c 0.473,2.816, 0.712,5.659, 0.712,8.449c0,27.983-22.767,50.75-50.75,50.75s-50.75-22.767-50.75-50.75c0-2.79, 0.24-5.633, 0.712-8.449
	C 90.67,219.087, 94.319,216, 98.591,216z M 266.591,216C 266.592,216, 266.591,216, 266.591,216c 4.274,0, 7.924,3.087, 8.629,7.302
	C 277.915,239.351, 291.701,251, 308,251s 30.085-11.649, 32.779-27.698c 0.707-4.214, 4.357-7.302, 8.628-7.302s 7.922,3.087, 8.628,7.301
	c 0.473,2.816, 0.712,5.659, 0.712,8.449c0,27.983-22.767,50.75-50.75,50.75s-50.75-22.767-50.75-50.75c0-2.79, 0.238-5.633, 0.711-8.449
	C 258.67,219.087, 262.319,216, 266.591,216z"  />
<glyph unicode="&#xe02d;" d="M 224-64c 123.712,0, 224,100.288, 224,224S 347.712,384, 224,384S0,283.712,0,160S 100.288-64, 224-64z M 224,342
		c 100.516,0, 182-81.484, 182-182s-81.484-182-182-182S 42,59.484, 42,160S 123.484,342, 224,342zM 350,272 C 357.7,272 364,265.7 364,258 L 364,216 C 364,200.6 351.4,188 336,188 L 280,188 C 264.6,188 252,200.6 252,216 L 196,216 C 196,200.6 183.4,188 168,188 L 112,188 C 96.6,188 84,200.6 84,216 L 84,258 C 84,265.7 90.3,272 98,272 L 182,272 C 189.7,272 196,265.7 196,258 L 196,244 L 252,244 L 252,258 C 252,265.7 258.3,272 266,272 L 350,272 ZM 224,48 C 264.779,48 300.463,69.795 320.051,102.372 L 344.061,87.963 C 319.576,47.245 274.973,20 224,20 C 202.8,20 182.707,24.723 164.701,33.161 L 179.21,57.345 C 192.927,51.345 208.069,48 224,48 Z"  />
<glyph unicode="&#xe02e;" d="M 224-64c 123.712,0, 224,100.288, 224,224S 347.712,384, 224,384S0,283.712,0,160S 100.288-64, 224-64z M 224,342
	c 100.516,0, 182-81.484, 182-182s-81.484-182-182-182S 42,59.484, 42,160S 123.484,342, 224,342z M 308.043,42.426
	C 290.904,70.928, 259.68,90, 224,90c-35.681,0-66.904-19.072-84.043-47.574l-36.019,21.611C 128.421,104.755, 173.027,132, 224,132
	c 50.972,0, 95.578-27.245, 120.061-67.963L 308.043,42.426zM 335.581,261.395 C 337.455,253.894 332.895,246.293 325.395,244.418 C 317.684,242.471 308.542,239.116 300.486,235.078 C 305.144,230.077 307.999,223.374 307.999,216 C 307.999,200.536 295.463,188 279.999,188 C 264.535,188 251.999,200.536 251.999,216 C 251.999,216.512 252.015,217.019 252.042,217.524 C 252.931,238.285 271.822,252.063 287.738,260.022 C 302.938,267.622 317.971,271.423 318.603,271.582 C 326.105,273.458 333.705,268.896 335.581,261.395 ZM 112.419,261.395c 1.876,7.501, 9.476,12.063, 16.978,10.187c 0.633-0.158, 15.665-3.96, 30.865-11.56
	c 15.916-7.959, 34.808-21.737, 35.697-42.498c 0.027-0.505, 0.043-1.012, 0.043-1.524c0-15.464-12.536-28-28-28s-28,12.536-28,28
	c0,7.374, 2.855,14.077, 7.514,19.078c-8.056,4.038-17.198,7.394-24.91,9.341C 115.105,246.293, 110.545,253.894, 112.419,261.395z"  />
<glyph unicode="&#xe02f;" d="M 224-64c 123.712,0, 224,100.288, 224,224S 347.712,384, 224,384S0,283.712,0,160S 100.288-64, 224-64z M 224,342
		c 100.516,0, 182-81.484, 182-182s-81.484-182-182-182S 42,59.484, 42,160S 123.484,342, 224,342zM 168,76 C 168,106.928 193.072,132 224,132 C 254.928,132 280,106.928 280,76 C 280,45.072 254.928,20 224,20 C 193.072,20 168,45.072 168,76 ZM 280,230A28,42 3780 1 0 336,230A28,42 3780 1 0 280,230zM 112,230A28,42 3780 1 0 168,230A28,42 3780 1 0 112,230z"  />
<glyph unicode="&#xe030;" d="M 224-64c 123.712,0, 224,100.288, 224,224S 347.712,384, 224,384S0,283.712,0,160S 100.288-64, 224-64z M 224,342
		c 100.516,0, 182-81.484, 182-182s-81.484-182-182-182S 42,59.484, 42,160S 123.484,342, 224,342zM 112,244A28,28 3780 1 0 168,244A28,28 3780 1 0 112,244zM 280,244A28,28 3780 1 0 336,244A28,28 3780 1 0 280,244zM 317.671,104 L 346.049,104 C 350.094,72.279 331.852,40.768 300.568,29.38 C 264.297,16.178 224.049,34.943 210.845,71.212 C 202.923,92.975 178.774,104.235 157.012,96.312 C 137.078,89.055 125.969,68.182 130.329,48.002 L 101.953,48.002 C 97.91,79.724 116.15,111.233 147.434,122.622 C 183.704,135.825 223.954,117.058 237.157,80.791 C 245.078,59.026 269.229,47.767 290.989,55.69 C 310.922,62.946 322.032,83.821 317.671,104 Z"  />
<glyph unicode="&#xe031;" d="M 224-64c 123.712,0, 224,100.288, 224,224S 347.712,384, 224,384S0,283.712,0,160S 100.288-64, 224-64z M 224,342
		c 100.516,0, 182-81.484, 182-182s-81.484-182-182-182S 42,59.484, 42,160S 123.484,342, 224,342zM 112,244c0-15.464, 12.536-28, 28-28s 28,12.536, 28,28s-12.536,28-28,28S 112,259.464, 112,244z M 280,244
	c0-15.464, 12.536-28, 28-28s 28,12.536, 28,28s-12.536,28-28,28S 280,259.464, 280,244z M 168,76l 112,0 l0-28 L 168,48 L 168,76 z"  />
<glyph unicode="&#xe032;" d="M 224-64c 123.712,0, 224,100.288, 224,224S 347.712,384, 224,384S0,283.712,0,160S 100.288-64, 224-64z M 224,342
		c 100.516,0, 182-81.484, 182-182s-81.484-182-182-182S 42,59.484, 42,160S 123.484,342, 224,342zM 326.261,120.791L 336.1,87.202L 144.909,31.201L 135.070,64.79zM 112,244 C 112,259.464 124.536,272 140,272 C 155.464,272 168,259.464 168,244 C 168,228.536 155.464,216 140,216 C 124.536,216 112,228.536 112,244 Z M 280,244 C 280,259.464 292.536,272 308,272 C 323.464,272 336,259.464 336,244 C 336,228.536 323.464,216 308,216 C 292.536,216 280,228.536 280,244 Z"  />
<glyph unicode="&#xe033;" d="M 378,76c-19.758,0-37.59-8.198-50.318-21.363L 139.118,148.919C 139.693,152.529, 140,156.228, 140,160
	s-0.307,7.471-0.882,11.080l 188.564,94.282C 340.41,252.198, 358.243,244, 378,244c 38.66,0, 70,31.34, 70,70S 416.66,384, 378,384
	s-70-31.34-70-70c0-3.772, 0.308-7.471, 0.882-11.080L 120.318,208.637C 107.59,221.801, 89.757,230, 70,230c-38.66,0-70-31.341-70-70
	c0-38.661, 31.34-70, 70-70c 19.758,0, 37.59,8.198, 50.318,21.362l 188.564-94.282C 308.308,13.471, 308,9.772, 308,6
	c0-38.661, 31.34-70, 70-70s 70,31.339, 70,70C 448,44.659, 416.66,76, 378,76z"  />
<glyph unicode="&#xe034;" d="M 128.702,103.482c-17.5,0-19.824,8.176-19.824,8.176l-68.25-134.12l 54.726,6.132
			l 30.268-45.5c0,0, 63,131.502, 63,130.62C 156.002,69.574, 168.952,102.6, 128.702,103.482z M 282.548,89.090c 8.498,14.28, 21.056,21.518, 37.674,21.742
			c 16.604,0.224, 25.018,8.638, 25.242,25.256c 0.224,16.604, 7.462,29.162, 21.742,37.646c 14.28,8.484, 17.36,19.992, 9.24,34.482s-8.12,28.994,0,43.484
			s 5.026,25.984-9.24,34.482s-21.518,21.042-21.742,37.66c-0.224,16.604-8.638,25.018-25.242,25.242c-16.632,0.224-29.176,7.462-37.674,21.742
			c-8.47,14.28-19.992,17.36-34.482,9.24s-28.98-8.12-43.47,0s-25.984,5.026-34.482-9.24c-8.498-14.28-21.042-21.518-37.66-21.742
			C 115.85,348.846, 107.436,340.432, 107.212,323.828c-0.224-16.618-7.462-29.162-21.742-37.66s-17.36-19.992-9.24-34.482c 8.12-14.49, 8.12-28.994,0-43.484
			c-8.12-14.49-5.026-25.984, 9.24-34.482c 14.28-8.498, 21.518-21.056, 21.742-37.646c 0.224-16.618, 8.638-25.032, 25.242-25.256
			c 16.618-0.224, 29.162-7.462, 37.66-21.742c 8.484-14.28, 19.992-17.346, 34.482-9.24s 28.98,8.106, 43.47,0S 274.064,74.81, 282.548,89.090z
			 M 245.252,159.944l-24.934,0 L 220.318,254.108 c-9.114-8.526-19.88-14.826-32.27-18.914L 188.048,257.832 c 6.51,2.128, 13.594,6.16, 21.238,12.11
			s 12.88,12.88, 15.722,20.804l 20.244,0 L 245.252,159.944 z M 338.24,106.408c-49.868-5.25-39.732-17.584-51.1-27.202c-13.132-14-29.498-11.298-29.498-11.298
			l 77-132.37l 18.9,49l 53.844-7L 338.24,106.408z"  />
<glyph unicode="&#xe035;" d="M 350.588,122.592L 350.588,297.41 c0,17.276-14,31.304-31.304,31.304L 45.29,328.714 
			C 28,328.728, 13.986,314.7, 13.986,297.41l0-174.818 c0-17.29, 14.014-31.304, 31.304-31.304l 52.206,0 l0-71.918l 79.856,71.918l 141.918,0 
			C 336.588,91.288, 350.588,105.302, 350.588,122.592z M 402.71,259.988l-39.172,0 c0,0,0-139.608,0-152.726s-17.024-29.988-30.142-29.988
			s-153.23-0.77-153.23-0.77c0-17.29, 14.014-27.804, 31.304-27.804l 60.326,0 l 78.708-71.428l-0.098,71.428l 52.304,0 
			c 17.304,0, 31.304,10.514, 31.304,27.804L 434.014,229.552 C 434.014,246.828, 420.014,259.988, 402.71,259.988z"  />
<glyph unicode="&#xe036;" d="M 224-64q-60.813,0 -112.438,29.969t-81.594,81.594t-29.969,112.438q0,45.5 17.719,87.063t 47.688,71.531t 71.531,47.688t 87.063,17.719t 87.063-17.719t 71.531-47.688t 47.688-71.531t 17.719-87.063t-17.719-87.063t-47.688-71.531t-71.531-47.688t-87.063-17.719zM 101.938,313.125q 1.75-2.625 6.563-6.125q 4.375-3.5 12.906-3.281t 13.344-0.219q 10.938,13.563 23.188,20.563q 7,4.375 17.281,7
t 16.844,3.063l 6.563,0.875q-2.625-3.063 -6.781-8.094t-11.594-19.031t-8.75-26.25q 1.75-1.75 12.469-4.594t 12.031-5.031l 28,0 q 5.688,0 7.875-10.063t-1.313-16.188q-2.188-0.438 -11.156-5.688t-22.094-13.125t-18.813-10.938q-0.875-1.75 -1.313-2.188q-0.875-1.75 1.531-14.656t-1.094-21.656q-0.438-0.875 -1.969-0.219t-4.594,2.406t-5.25,2.625q-3.5,1.75 -7.656,2.188t-4.156,0q-4.813-6.563 -7.438-12.25q 1.313-7.438 2.188-9.188
q 5.688-11.813 16.625-22.094t 24.938-12.031q 7.875-0.875 15.969,3.281t 14,9.844t 13.781,10.5t 14.438,4.375q 16.188,0 26.688-5.469t 10.5-15.094q0-2.625 -2.625-4.813l 0.219-0.219t 0.656-0.219q-1.313-1.313 -3.938-2.188t-4.594-1.313t-5.688-0.656t-4.594-0.219q-5.25-0.875 -13.125-10.719t-14-12.031q-7.438-2.625 -17.938-10.719t-19.906-13.344t-18.156-3.938q 2.188-2.625 0.875-3.063q-0.438,0 1.75-2.188
q 18.813-14 51.188-13.563q-7.438-4.375 -21-5.688q 8.313-3.5 17.063-5.688q 33.25-2.188 53.813,4.813t 36.75,24.938q-1.75-11.375 -8.75-21.438q 3.063,1.313 6.563,3.5q 21.438,21.875 30.188,40.688t 7.875,39.813l0,1.094 l0,1.094 q0,3.5 -0.438,5.688q 6.563-7.875 9.188-18.375q 1.313,51.188 -10.5,71.75q 17.063-10.063 26.688-28q 0.438,51.625 -16.188,84.875q 12.688-8.75 22.313-20.125q-8.313,37.188 -35,69.563q-55.563,50.313 -130.375,50.313q-68.25,0 -122.063-42.875z"  />
<glyph unicode="&#xe037;" d="M 420-8l-28,0 l0-28 q0-11.813 -8.313-19.906t-19.906-8.094t-19.688,8.094t-8.094,19.906l0,28 l-28,0 q-11.813,0 -19.906,8.313t-8.094,19.906t 8.094,19.688t 19.906,8.094l 28,0 l0,28 q0,11.813 8.094,19.906t 19.688,8.094t 19.906-8.094t 8.313-19.906l0-28 l 28,0 q 11.375,0 19.688-8.094t 8.313-19.688t-8.313-19.906t-19.688-8.313zM 310.625,104q-14-11.375 -30.625-18.375l0-12.25 
q-12.25-4.375 -20.125-15.094t-7.875-24.281l0-28 q0-17.5 12.25-29.75t 29.75-12.25l 14,0 l0-27.125 q-30.625-0.875 -84-0.875l-33.25,0 t-35.438,0.438t-38.063,1.094t-35,1.969t-33.031,3.719t-25.156,5.25t-18.156,7.219t-5.906,9.625q 0.875,38.5 48.125,68.031t 119.875,39.156l0,14.438 q-22.75,10.063 -39.375,28.438t-26.25,43.094t-14,52.938t-4.375,60.594q0,28.438 10.938,50.094t 30.188,35t 44.188,20.125t 54.688,6.781t 54.688-6.781
t 44.188-20.125t 30.188-35t 10.938-50.094q0-96.25 -32.813-144.375q-14.875-7.875 -20.563-23.625z"  />
<glyph unicode="&#xe038;" d="M 420-8l-112,0 q-11.813,0 -19.906,8.313t-8.094,19.906t 8.094,19.688t 19.906,8.094l 112,0 q 11.813,0 19.906-8.094t 8.094-19.688t-8.094-19.906t-19.906-8.313zM 310.625,104q-14-11.375 -30.625-18.375l0-12.25 q-12.25-4.375 -20.125-15.094t-7.875-24.281l0-28 q0-17.5 12.25-29.75t 29.75-12.25l 14,0 l0-27.125 q-30.625-0.875 -84-0.875l-33.25,0 t-35.438,0.438t-38.063,1.094t-35,1.969t-33.031,3.719
t-25.156,5.25t-18.156,7.219t-5.906,9.625q 0.875,38.5 48.125,68.031t 119.875,39.156l0,14.438 q-22.75,10.063 -39.375,28.438t-26.25,43.094t-14,52.938t-4.375,60.594q0,28.438 10.938,50.094t 30.188,35t 44.188,20.125t 54.688,6.781t 54.688-6.781t 44.188-20.125t 30.188-35t 10.938-50.094q0-96.25 -32.813-144.375q-14.875-7.875 -20.563-23.625z"  />
<glyph unicode="&#xe039;" d="M 385.438,243.125q-4.375,0.875 -6.563,0.875q-16.188,0 -28-10.938q-26.688,11.813 -49.875,19.25q-38.063,12.25 -79.625,20.125q-3.938,10.5 -11.813,17.5q 10.938,51.625 29.313,93.625q 55.125-3.938 101.281-31.938t 74.594-73.5q-16.188-17.5 -29.313-35zM 182.438,300q-11.375,0 -21.438-6.125q-35.438,26.25 -71.313,44.625q 54.25,41.125 121.625,45.063q-17.063-38.063 -27.563-83.563l-0.875,0 l-0.438,0 zM 30.625,272.875q 14.875,24.938 37.625,47.25q 29.75-15.313 61.688-37.625
q-56.438,1.313 -99.313-9.625zM 140.438,255.375q 0.875-13.563 9.406-23.844t 21.219-13.781q-2.625-30.625 -2.625-58.188q0-19.25 1.313-44.188q-9.625-3.063 -17.063-10.5q-23.625,9.188 -45.5,21q 4.813,9.625 4.813,19.688q0,17.5 -12.25,29.75t-29.75,12.25q-19.25,0 -31.938-14.875q-18.375,16.625 -32.813,34.563q 3.938,18.813 11.813,37.188q 53.375,14.875 123.375,10.938zM 28.438,142.062q 1.313-16.188 13.344-27.344t 28.219-11.156q 4.813,0 10.5,1.75
q 28-16.188 59.938-28l0-0.875 l0-0.875 q0-17.063 11.594-29.094t 28.656-12.906q 10.938-53.375 30.625-97.563q-43.75,2.625 -82.688,21.219t-67.156,48.344t-44.844,70t-16.625,84q0,0.438 0.438,11.813q 12.25-15.313 28-29.313zM 219.188,55.875q 31.5-5.688 63.438-7.438q 3.063-8.75 9.625-16.188q-10.063-45.938 -12.25-89.25q-22.313-5.688 -41.125-7q-20.563,46.813 -31.938,105.875q 7.875,5.25 12.25,14zM 354.813,34.875
q 5.688,7 7.875,14.875q 31.938,2.625 61.688,8.313q-21-41.125 -57.75-71.313q-3.938,22.75 -11.813,48.125zM 283.5,76.437q-30.625,1.75 -60.375,7.875q-4.813,21.875 -24.938,30.188q-1.75,25.813 -1.75,45.063q0,28.875 2.625,59.938q 0.875,0 2.188,0.875t 1.75,0.875q 17.063-16.625 29.75-30.625q 38.063-42 64.75-95.375q-9.625-7.438 -14-18.813zM 322.438,19.562q 0.875,0 4.813,0.438q 7.438-26.688 10.938-52.938q-12.688-7.438 -30.625-14.875q 3.063,34.125 10.5,67.813q 3.5-0.438 4.375-0.438z
M 320.25,124.125q-0.438-0.875 -1.094-2.625t-1.094-2.625q-27.563,49.875 -64.75,90.563q-13.563,15.313 -32.375,33.25q 0.438,0 0.656,0.656l 0.219,0.656q 36.75-7.438 70.438-18.375q 20.563-6.563 45.063-17.5q-0.875-4.375 -0.875-6.563q0-13.125 7.875-24.063q-14.438-27.563 -24.063-53.375zM 340.813,98.75q 5.25,15.313 5.25,15.75q 8.75,21.875 21.875,46.813q 5.688-1.75 10.938-1.75q 14.875,0 26.688,10.063q 21.438-14.875 42-33.25q-2.625-24.938 -10.5-48.125
q-35.875-7.438 -75.688-10.5q-5.688,14 -20.563,21zM 420.875,202q0,14.438 -9.625,26.25q 9.188,11.813 18.375,21.438q 15.75-35.875 18.375-73.938q-14.438,10.938 -28,19.688q 0.875,3.938 0.875,6.563z"  />
<glyph unicode="&#xe03a;" d="M 419.781,132q-11.594,0 -19.688-16.406t-8.094-39.594l0-84 q0-23.188 -16.406-39.594t-39.594-16.406l-28,0 q-11.813,0 -19.906,8.313t-8.094,19.906t 8.313,19.688t 19.688,8.094l 14,0 q 5.688,0 9.844,4.156t 4.156,9.844l0,98 q0,23.188 16.406,39.594t 39.594,16.406q-23.188,0 -39.594,16.406t-16.406,39.594l0,98 q0,5.688 -4.156,9.844t-9.844,4.156l-14,0 q-11.813,0 -19.906,8.313
t-8.094,19.906t 8.313,19.688t 19.688,8.094l 28,0 q 23.188,0 39.594-16.406t 16.406-39.594l0-84 q0-23.188 8.313-39.594t 19.688-16.406t 19.688-8.313t 8.313-19.688t-8.313-19.688t-19.906-8.313zM 112,104l0-98 q0-5.688 4.156-9.844t 9.844-4.156l 14,0 q 11.813,0 19.906-8.094t 8.094-19.688t-8.094-19.906t-19.906-8.313l-28,0 q-23.188,0 -39.594,16.406t-16.406,39.594l0,84 
q0,23.188 -8.094,39.594t-19.688,16.406t-19.906,8.313t-8.313,19.688t 8.313,19.688t 19.906,8.313t 19.688,16.406t 8.094,39.594l0,84 q0,23.188 16.406,39.594t 39.594,16.406l 28,0 q 11.813,0 19.906-8.094t 8.094-19.906t-8.094-19.906t-19.906-8.094l-14,0 q-5.688,0 -9.844-4.156t-4.156-9.844l0-98 q0-23.188 -16.406-39.594t-39.594-16.406q 23.188,0 39.594-16.406t 16.406-39.594z
"  />
<glyph unicode="&#xe03b;" d="M 448-34.688q0-5.25 -5.906-9.625t-18.156-7.219t-25.156-5.25t-33.031-3.719t-35-1.969t-38.281-1.094t-35.438-0.438l-33.031,0 l-33.031,0 t-35.438,0.438t-38.281,1.094t-35,1.969t-33.031,3.719t-25.156,5.25t-18.156,7.219t-5.906,9.625q 0.875,38.5 48.125,68.031t 119.875,39.156l0,14.438 q-22.75,10.063 -39.375,28.438t-26.25,43.094t-14,52.938t-4.375,61.031q0,28 10.938,49.875t 30.188,35.219
t 44.188,20.125t 54.688,6.781t 54.688-6.781t 44.188-20.125t 30.188-35.219t 10.938-49.875q0-153.125 -84-186.375l0-13.563 q 72.625-9.625 119.875-39.156t 48.125-68.031z"  />
<glyph unicode="&#xe03c;" d="M0-64l0,448 l 448,0 l0-448 l-448,0 zM 420,356l-392,0 l0-336 l 392,0 l0,336 zM 196,144.687l0,5.688 q-29.313,9.625 -42.656,39.375t-13.344,72.188q0,32.375 23.406,49.219t 60.594,16.844t 60.594-16.844t 23.406-49.219q0-94.938 -56-112l0-5.25 q 49.438-4.375 80.281-23.188t 31.719-49.875q0-4.375 -3.719-7.875t-11.375-5.906t-15.75-4.156t-20.563-2.844t-21.875-1.75t-23.844-0.875
t-22.094-0.219l-20.781,0 l-20.781,0 t-22.094,0.219t-23.844,0.875t-21.875,1.75t-20.563,2.844t-15.75,4.156t-11.375,5.906t-3.719,7.875q 0.875,31.063 31.719,49.875t 80.281,23.188z"  />
<glyph unicode="&#xe03d;" d="M 392-64l0,28 q0,27.125 -10.5,47.688t-29.969,33.469t-44.188,20.344t-55.344,9.625l0,7 q 35.438,14.875 59.719,60.156t 24.281,94.281q0,45.063 -31.281,68.25t-80.719,23.188t-80.719-23.188t-31.281-68.25q0-47.688 24.938-92.75t 59.063-60.813l0-7.875 q-30.625-2.188 -55.344-9.625t-44.188-20.344t-29.969-33.469t-10.5-47.688l0-28 q-23.188,0 -39.594,16.406t-16.406,39.594l0,336 
q0,23.188 16.406,39.594t 39.594,16.406l 336,0 q 23.188,0 39.594-16.406t 16.406-39.594l0-336 q0-23.188 -16.406-39.594t-39.594-16.406z"  />
<glyph unicode="&#xe03e;" d="M 434,216l-168,0 q-5.688,0 -9.844,4.156t-4.156,9.844t 4.156,9.844t 9.844,4.156l 168,0 q 5.688,0 9.844-4.156t 4.156-9.844t-4.156-9.844t-9.844-4.156zM 266,300l 112,0 q 5.688,0 9.844-4.156t 4.156-9.844t-4.156-9.844t-9.844-4.156l-112,0 q-5.688,0 -9.844,4.156t-4.156,9.844t 4.156,9.844t 9.844,4.156zM 434,328l-168,0 q-5.688,0 -9.844,4.156
t-4.156,9.844t 4.156,9.844t 9.844,4.156l 168,0 q 5.688,0 9.844-4.156t 4.156-9.844t-4.156-9.844t-9.844-4.156zM 196,160l-168,0 q-11.813,0 -19.906,8.313t-8.094,19.688l0,140 q0,11.375 8.094,19.688t 19.906,8.313l 168,0 q 11.375,0 19.688-8.313t 8.313-19.688l0-140 q0-11.375 -8.313-19.688t-19.688-8.313zM 266,160q-5.688,0 -9.844,4.156t-4.156,9.844t 4.156,9.844t 9.844,4.156l 140,0 
q 5.688,0 9.844-4.156t 4.156-9.844t-4.156-9.844t-9.844-4.156l-140,0 zM 14,132l 420,0 q 5.688,0 9.844-4.156t 4.156-9.844t-4.156-9.844t-9.844-4.156l-420,0 q-5.688,0 -9.844,4.156t-4.156,9.844t 4.156,9.844t 9.844,4.156zM 14,76l 364,0 q 5.688,0 9.844-4.156t 4.156-9.844t-4.156-9.844t-9.844-4.156l-364,0 q-5.688,0 -9.844,4.156t-4.156,9.844
t 4.156,9.844t 9.844,4.156zM 14,20l 392,0 q 5.688,0 9.844-4.156t 4.156-9.844t-4.156-9.844t-9.844-4.156l-392,0 q-5.688,0 -9.844,4.156t-4.156,9.844t 4.156,9.844t 9.844,4.156zM 14-36l 336,0 q 5.688,0 9.844-4.156t 4.156-9.844t-4.156-9.844t-9.844-4.156l-336,0 q-5.688,0 -9.844,4.156t-4.156,9.844t 4.156,9.844t 9.844,4.156z"  />
<glyph unicode="&#xe03f;" d="M 420,160l-168,0 q-11.375,0 -19.688,8.313t-8.313,19.688l0,140 q0,11.375 8.313,19.688t 19.688,8.313l 168,0 q 11.375,0 19.688-8.313t 8.313-19.688l0-140 q0-11.375 -8.313-19.688t-19.688-8.313zM 182,216l-168,0 q-5.688,0 -9.844,4.156t-4.156,9.844t 4.156,9.844t 9.844,4.156l 168,0 q 5.688,0 9.844-4.156t 4.156-9.844t-4.156-9.844t-9.844-4.156zM 14,300l 112,0 q 5.688,0 9.844-4.156t 4.156-9.844
t-4.156-9.844t-9.844-4.156l-112,0 q-5.688,0 -9.844,4.156t-4.156,9.844t 4.156,9.844t 9.844,4.156zM 182,328l-168,0 q-5.688,0 -9.844,4.156t-4.156,9.844t 4.156,9.844t 9.844,4.156l 168,0 q 5.688,0 9.844-4.156t 4.156-9.844t-4.156-9.844t-9.844-4.156zM 14,188l 140,0 q 5.688,0 9.844-4.156t 4.156-9.844t-4.156-9.844t-9.844-4.156l-140,0 
q-5.688,0 -9.844,4.156t-4.156,9.844t 4.156,9.844t 9.844,4.156zM 14,132l 420,0 q 5.688,0 9.844-4.156t 4.156-9.844t-4.156-9.844t-9.844-4.156l-420,0 q-5.688,0 -9.844,4.156t-4.156,9.844t 4.156,9.844t 9.844,4.156zM 14,76l 364,0 q 5.688,0 9.844-4.156t 4.156-9.844t-4.156-9.844t-9.844-4.156l-364,0 q-5.688,0 -9.844,4.156t-4.156,9.844t 4.156,9.844
t 9.844,4.156zM 14,20l 392,0 q 5.688,0 9.844-4.156t 4.156-9.844t-4.156-9.844t-9.844-4.156l-392,0 q-5.688,0 -9.844,4.156t-4.156,9.844t 4.156,9.844t 9.844,4.156zM 14-36l 336,0 q 5.688,0 9.844-4.156t 4.156-9.844t-4.156-9.844t-9.844-4.156l-336,0 q-5.688,0 -9.844,4.156t-4.156,9.844t 4.156,9.844t 9.844,4.156z"  />
<glyph unicode="&#xe040;" d="M 252,106.625l0-58.625 l 28,0 q 11.375,0 19.688-8.313t 8.313-19.906t-8.313-19.688t-19.688-8.094l-28,0 l0-28 q0-11.813 -8.313-19.906t-19.906-8.094t-19.688,8.094t-8.094,19.906l0,28 l-28,0 q-11.813,0 -19.906,8.094t-8.094,19.688t 8.094,19.906t 19.906,8.313l 28,0 l0,58.625 q-48.563,10.063 -80.281,48.563t-31.719,88.813q0,38.063 18.813,70.219t 50.969,50.969t 70.219,18.813t 70.219-18.813
t 50.969-50.969t 18.813-70.219q0-50.313 -31.938-88.813t-80.063-48.563zM 223.781,328q-34.781,0 -59.281-24.719t-24.5-59.5t 24.5-59.281t 59.281-24.5t 59.5,24.5t 24.719,59.281t-24.719,59.5t-59.5,24.719z"  />
<glyph unicode="&#xe041;" d="M 418.031,174.875q-12.469,0 -21.219,8.75t-8.75,21l0,81.375 l-115.938-115.938q 26.688-38.5 26.688-84.875q0-40.688 -20.125-75.031t-54.469-54.25t-74.813-19.906t-75.031,19.906t-54.469,54.25t-19.906,75.031t 19.906,75.031t 54.469,54.25t 74.813,19.906q 46.813,0 84.875-26.25l 116.375,115.938l-81.813,0 q-12.25,0 -21,8.75t-8.75,21t 8.75,21t 21,8.75l 149.625,0 q 12.25,0 21-8.75t 8.75-21
l0-149.188 q0-12.25 -8.75-21t-21.219-8.75zM 149.406,174.875q-36.969,0 -63.219-26.25t-26.25-63.438t 26.25-63.438t 63.219-26.25t 63.219,26.25t 26.25,63.438t-26.25,63.438t-63.219,26.25z"  />
<glyph unicode="&#xe042;" d="M 392,272L 392,328 L0,328 l0-308 c0-15.464, 12.536-28, 28-28l 378,0 c 23.197,0, 42,18.803, 42,42L 448,272 L 392,272 z M 364,20L 28,20 L 28,300 l 336,0 L 364,20 zM 56,244L 336,244L 336,216L 56,216zM 224,188L 336,188L 336,160L 224,160zM 224,132L 336,132L 336,104L 224,104zM 224,76L 308,76L 308,48L 224,48zM 56,188L 196,188L 196,48L 56,48z"  />
<glyph unicode="&#xe043;" d="M 259,188l-7,0 l0,84 c0,46.318-37.682,84-84,84l-56,0 c-46.318,0-84-37.682-84-84l0-84 l-7,0 c-11.55,0-21-9.45-21-21l0-210 
	c0-11.55, 9.45-21, 21-21l 238,0 c 11.55,0, 21,9.45, 21,21L 280,167 C 280,178.55, 270.55,188, 259,188z M 168-8l-56,0 l 12.18,60.9
	C 116.826,57.945, 112,66.407, 112,76c0,15.464, 12.536,28, 28,28c 15.464,0, 28-12.536, 28-28c0-9.593-4.827-18.055-12.18-23.1L 168-8
	z M 196,188L 84,188 l0,84 c0,15.439, 12.561,28, 28,28l 56,0 c 15.439,0, 28-12.561, 28-28L 196,188 z"  />
<glyph unicode="&#xe044;" d="M 336,356l-56,0 c-46.318,0-84-37.682-84-84l0-84 L 21,188 c-11.55,0-21-9.45-21-21l0-210 c0-11.55, 9.45-21, 21-21l 238,0 c 11.55,0, 21,9.45, 21,21L 280,167 
	c0,11.55-9.45,21-21,21l-7,0 l0,84 c0,15.439, 12.561,28, 28,28l 56,0 c 15.439,0, 28-12.561, 28-28l0-84 l 56,0 l0,84 C 420,318.318, 382.318,356, 336,356z
	 M 168-8l-56,0 l 12.18,60.9C 116.826,57.945, 112,66.407, 112,76c0,15.464, 12.536,28, 28,28c 15.464,0, 28-12.536, 28-28
	c0-9.593-4.827-18.055-12.18-23.1L 168-8z"  />
<glyph unicode="&#xe045;" d="M 196,132L 196,328 C 87.752,328,0,240.248,0,132s 87.752-196, 196-196s 196,87.752, 196,196c0,31.515-7.45,61.287-20.666,87.667
		L 196,132zM 399.334,275.667C 367.155,339.899, 300.733,384, 224,384l0-196 L 399.334,275.667z"  />
<glyph unicode="&#xe046;" d="M 56-8 L 448-8 L 448-64 L 0-64 L 0,384 L 56,384 ZM 126,20 C 102.804,20 84,38.804 84,62 C 84,85.196 102.804,104 126,104 C 127.237,104 128.46,103.935 129.67,103.831 L 174.816,179.075 C 170.511,185.668 168,193.54 168,202.001 C 168,225.197 186.804,244.001 210,244.001 C 233.196,244.001 252,225.197 252,202.001 C 252,193.539 249.489,185.668 245.184,179.075 L 290.33,103.831 C 291.54,103.935 292.763,104 294,104 C 294.934,104 295.859,103.959 296.778,103.899 L 371.309,234.328 C 366.699,241.069 364,249.219 364,258.001 C 364,281.197 382.804,300.001 406,300.001 C 429.196,300.001 448,281.197 448,258.001 C 448,234.805 429.196,216.001 406,216.001 C 405.064,216.001 404.141,216.042 403.222,216.102 L 328.691,85.673 C 333.301,78.933 336,70.782 336,62 C 336,38.804 317.196,20 294,20 C 270.804,20 252,38.804 252,62 C 252,70.461 254.511,78.333 258.815,84.926 L 213.67,160.169 C 212.46,160.065 211.237,160 210,160 C 208.763,160 207.54,160.064 206.33,160.169 L 161.184,84.925 C 165.489,78.333 168,70.461 168,62 C 168,38.804 149.196,20 126,20 Z"  />
<glyph unicode="&#xe047;" d="M 448,132l0,28 l-84.564,0 c-2.565,31.8-13.906,60.824-31.356,84.109l 70.85,0 l 30.651,122.605l-27.164,6.791l-25.349-101.395l-76.422,0 
	c-0.39,0.304-0.786,0.601-1.18,0.899c 2.936,8.532, 4.533,17.685, 4.533,27.21C 308,346.49, 270.392,384, 224,384s-84-37.51-84-83.781
	c0-9.525, 1.597-18.678, 4.533-27.21c-0.394-0.299-0.789-0.596-1.18-0.899l-76.422,0 l-25.349,101.395l-27.164-6.791l 30.651-122.605l 70.85,0 
	C 98.47,220.824, 87.129,191.8, 84.564,160L0,160 l0-28 l 84.599,0 c 1.663-19.978, 6.785-38.855, 14.717-55.891L 45.070,76.109 l-30.651-122.604
	l 27.164-6.792l 25.349,101.396l 49.155,0 C 141.764,13.97, 180.572-7.781, 224-7.781s 82.235,21.752, 107.915,55.891l 49.155,0 l 25.349-101.396
	l 27.164,6.792l-30.651,122.604l-54.247,0 c 7.932,17.035, 13.053,35.913, 14.716,55.891L 448,132 z"  />
<glyph unicode="&#xe048;" d="M0,384L 112,384L 112,272L0,272zM 168,356L 448,356L 448,300L 168,300zM0,216L 112,216L 112,104L0,104zM 168,188L 448,188L 448,132L 168,132zM0,48L 112,48L 112-64L0-64zM 168,20L 448,20L 448-36L 168-36z"  />
<glyph unicode="&#xe049;" d="M 168,20L 448,20L 448-36L 168-36zM 168,188L 448,188L 448,132L 168,132zM 168,356L 448,356L 448,300L 168,300zM 84,384 L 84,272 L 56,272 L 56,356 L 28,356 L 28,384 ZM 56,153.875 L 56,132 L 112,132 L 112,104 L 28,104 L 28,167.875 L 84,194.125 L 84,216 L 28,216 L 28,244 L 112,244 L 112,180.125 ZM 112,76 L 112-64 L 28-64 L 28-36 L 84-36 L 84-8 L 28-8 L 28,20 L 84,20 L 84,48 L 28,48 L 28,76 Z"  />
<glyph unicode="&#xe04a;" d="M 392,160l-70,0 L 224,62L 126,160L 56,160 L0,48l0-28 l 448,0 l0,28 L 392,160z M0-8l 448,0 l0-28 L0-36 L0-8 z M 252,244L 252,356 l-56,0 l0-112 L 98,244 l 126-126l 126,126
	L 252,244 z"  />
<glyph unicode="&#xe04b;" d="M0-8L 448-8L 448-36L0-36zM 448,48 L 448,20 L 0,20 L 0,48 L 56,160 L 168,160 L 168,104 L 280,104 L 280,160 L 392,160 ZM 98,244 L 224,370 L 350,244 L 252,244 L 252,132 L 196,132 L 196,244 Z"  />
<glyph unicode="&#xe04c;" d="M 417.111,351.344l-1.762,1.768c-41.19,41.184-108.585,41.184-149.768,0L 170.159,257.678
		c-41.184-41.183-41.184-108.577,0-149.761l 1.761-1.761c 3.426-3.433, 7.064-6.529, 10.822-9.388l 34.934,34.934
		c-4.070,2.404-7.93,5.281-11.426,8.776l-1.768,1.768c-22.362,22.355-22.362,58.744,0,81.108L 299.913,318.779
		c 22.363,22.364, 58.745,22.364, 81.106,0l 1.768-1.76c 22.356-22.363, 22.356-58.753,0-81.108l-43.175-43.175
		c 7.495-18.51, 11.046-38.238, 10.735-57.919l 66.764,66.764C 458.296,242.765, 458.296,310.159, 417.111,351.344zM 276.081,213.841c-3.426,3.426-7.064,6.528-10.822,9.38l-34.934-34.926c 4.071-2.405, 7.93-5.282, 11.426-8.777l 1.768-1.768
		c 22.363-22.363, 22.363-58.744,0-81.107L 148.088,1.209c-22.364-22.357-58.746-22.357-81.107,0l-1.768,1.768
		c-22.355,22.365-22.355,58.746,0,81.107l 43.176,43.175c-7.496,18.509-11.045,38.238-10.735,57.919l-66.763-66.762
		c-41.184-41.183-41.184-108.578,0-149.767l 1.761-1.764c 41.191-41.181, 108.584-41.181, 149.768,0l 95.423,95.427
		c 41.184,41.183, 41.184,108.585,0,149.768L 276.081,213.841z"  />
<glyph unicode="&#xe04d;" d="M0,160c0-123.712, 100.288-224, 224-224c 123.713,0, 224,100.288, 224,224S 347.713,384, 224,384C 100.288,384,0,283.712,0,160z M 392,160
	c0-32.041-8.974-61.985-24.538-87.462L 136.539,303.462C 162.015,319.027, 191.959,328, 224,328C 316.783,328, 392,252.784, 392,160z M 56,160
	c0,32.041, 8.974,61.984, 24.539,87.462l 230.922-230.923C 285.984,0.973, 256.041-8, 224-8C 131.217-8, 56,67.216, 56,160z"  />
<glyph unicode="&#xe04e;" d="M 443.915,24.086c-0.002,0.002-0.004,0.004-0.005,0.004L 308.003,160l 135.907,135.909c 0.002,0.002, 0.004,0.003, 0.005,0.004
		c 1.463,1.464, 2.521,3.174, 3.199,4.995c 1.858,4.977, 0.798,10.798-3.204,14.801L 379.708,379.91c-4.002,4.001-9.822,5.060-14.8,3.203
		c-1.82-0.678-3.531-1.736-4.995-3.198c0-0.002-0.002-0.003-0.004-0.004L 224.001,244L 88.092,379.909
		c-0.002,0.002-0.003,0.003-0.004,0.004c-1.464,1.462-3.174,2.52-4.994,3.198c-4.979,1.859-10.798,0.799-14.801-3.203L 4.091,315.707
		c-4.002-4.002-5.061-9.823-3.203-14.8c 0.679-1.82, 1.737-3.531, 3.199-4.995c 0.002-0.001, 0.003-0.003, 0.004-0.004L 140.001,160
		L 4.091,24.090c-0.001-0.002-0.003-0.003-0.004-0.004c-1.462-1.464-2.52-3.174-3.2-4.994c-1.859-4.977-0.799-10.798, 3.203-14.801
		l 64.202-64.201c 4.003-4.002, 9.823-5.061, 14.801-3.203c 1.82,0.679, 3.531,1.737, 4.995,3.199c 0.001,0.002, 0.003,0.003, 0.004,0.004
		l 135.909,135.909l 135.909-135.909c 0.002-0.001, 0.004-0.003, 0.005-0.004c 1.465-1.463, 3.174-2.521, 4.994-3.2
		c 4.978-1.858, 10.799-0.799, 14.8,3.203l 64.201,64.202c 4.002,4.002, 5.062,9.824, 3.204,14.801
		C 446.435,20.913, 445.378,22.622, 443.915,24.086z"  />
<glyph unicode="&#xe04f;" d="M 378,328L 168,118L 70,216L0,146L 168-22L 448,258 z"  />
<glyph unicode="&#xe050;" d="M 140,104L 140,188L 224,188L 112,300L0,188L 84,188L 84,48L 252,48L 196,104 	zM 364,132L 364,272L 196,272L 252,216L 308,216L 308,132L 224,132L 336,20L 448,132 	z"  />
<glyph unicode="&#xe051;" d="M0,384l0-448 l 448,0 L 448,384 L0,384 z M 420-36L 28-36 L 28,356 l 392,0 L 420-36 z M 336,286L 196,146l-84,84l-56-56l 140-140l 196,196L 336,286z"  />
<glyph unicode="&#xe052;" d="M0,384l0-448 l 448,0 L 448,384 L0,384 z M 420-36L 28-36 L 28,356 l 392,0 L 420-36 z"  />
<glyph unicode="&#xe053;" d="M 224,384C 100.288,384,0,283.712,0,160s 100.288-224, 224-224s 224,100.288, 224,224S 347.712,384, 224,384z M 224-8
		c-92.784,0-168,75.216-168,168c0,92.784, 75.216,168, 168,168c 92.784,0, 168-75.216, 168-168C 392,67.216, 316.784-8, 224-8zM 140,160A84,84 13500 1 1 308,160A84,84 13500 1 1 140,160z"  />
<glyph unicode="&#xe054;" d="M 224,384C 100.288,384,0,283.712,0,160s 100.288-224, 224-224s 224,100.288, 224,224S 347.712,384, 224,384z M 224-8
	c-92.784,0-168,75.216-168,168c0,92.784, 75.216,168, 168,168c 92.784,0, 168-75.216, 168-168C 392,67.216, 316.784-8, 224-8z"  />
<glyph unicode="&#xe055;" d="M0,300L 448,300L 448,272L0,272zM0,244L 308,244L 308,216L0,216zM0,188L 448,188L 448,160L0,160zM0,132L 308,132L 308,104L0,104zM0,76L 448,76L 448,48L0,48zM0,20L 308,20L 308-8L0-8z"  />
<glyph unicode="&#xe056;" d="M0,300L 448,300L 448,272L0,272zM 84,244L 364,244L 364,216L 84,216zM 84,132L 364,132L 364,104L 84,104zM 84,20L 364,20L 364-8L 84-8zM0,188L 448,188L 448,160L0,160zM0,76L 448,76L 448,48L0,48z"  />
<glyph unicode="&#xe057;" d="M0,244L 448,244L 448,216L0,216zM0,132L 448,132L 448,104L0,104zM0,20L 448,20L 448-8L0-8zM0,300L 448,300L 448,272L0,272zM0,188L 448,188L 448,160L0,160zM0,76L 448,76L 448,48L0,48z"  />
<glyph unicode="&#xe058;" d="M0,300L 448,300L 448,272L0,272zM 140,244L 448,244L 448,216L 140,216zM0,188L 448,188L 448,160L0,160zM 140,132L 448,132L 448,104L 140,104zM0,76L 448,76L 448,48L0,48zM 140,20L 448,20L 448-8L 140-8z"  />
<glyph unicode="&#xe059;" d="M 112,104A28,28 3420 1 1 168,104A28,28 3420 1 1 112,104zM 280,104A28,28 3420 1 1 336,104A28,28 3420 1 1 280,104zM 281.361,44.16 C 288.572,49.841 299.026,48.602 304.708,41.389 C 310.391,34.177 309.15,23.724 301.937,18.042 C 281.858,2.223 251.265-8 224-8 C 196.734-8 166.142,2.223 146.062,18.041 C 138.849,23.724 137.609,34.177 143.292,41.389 C 148.975,48.6 159.428,49.841 166.639,44.16 C 178.199,35.052 201.080,25.25 224,25.25 C 246.92,25.25 269.801,35.052 281.361,44.16 ZM 448,160c0,30.928-25.072,56-56,56c-21.051,0-39.372-11.624-48.935-28.796c-28.784,15.747-63.854,25.92-102.060,28.266
			l 33.417,75.043l 63.96-18.463C 344.136,255.713, 359.696,244, 378,244c 23.196,0, 42,18.804, 42,42s-18.804,42-42,42
			c-15.995,0-29.9-8.943-36.992-22.1L 269.736,326.473c-7.973,2.3-16.423-1.628-19.798-9.21l-45.399-101.949
			c-37.248-2.623-71.427-12.697-99.591-28.103C 95.383,204.383, 77.051,216, 56,216c-30.928,0-56-25.072-56-56
			c0-22.886, 13.738-42.549, 33.413-51.232C 29.882,98.256, 28,87.285, 28,76c0-77.319, 87.752-140, 196-140
			c 108.247,0, 196,62.681, 196,140c0,11.284-1.881,22.252-5.411,32.763C 434.263,117.447, 448,137.113, 448,160z M 378,301.75
			c 8.698,0, 15.75-7.052, 15.75-15.75s-7.052-15.75-15.75-15.75s-15.75,7.052-15.75,15.75S 369.302,301.75, 378,301.75z M 28,160c0,15.439, 12.561,28, 28,28
			c 11.16,0, 20.813-6.564, 25.308-16.033c-14.633-11.098-26.76-23.899-35.729-37.948C 35.287,138.163, 28,148.244, 28,160z M 224-30.75
			c-89.884,0-162.75,47.793-162.75,106.75s 72.866,106.75, 162.75,106.75c 89.884,0, 162.75-47.793, 162.75-106.75S 313.884-30.75, 224-30.75z M 402.421,134.019
			c-8.969,14.049-21.095,26.85-35.729,37.948C 371.188,181.436, 380.84,188, 392,188c 15.439,0, 28-12.561, 28-28
			C 420,148.244, 412.713,138.163, 402.421,134.019z"  />
<glyph unicode="&#xe05a;" d="M 426.698,131.152c 1.23,9.1, 1.938,18.351, 1.938,27.769c0,113.011-92.112,204.638-205.715,204.638
	c-11.291,0-22.361-0.927-33.133-2.695c-19.313,12.586-42.299,19.921-67.035,19.921C 54.92,380.785,0,325.828,0,258.018
	c0-24.673, 7.262-47.595, 19.766-66.84c-1.684-10.515-2.545-21.283-2.545-32.252c0-113.029, 92.065-204.647, 205.699-204.647
	c 12.825,0, 25.311,1.249, 37.447,3.441c 18.856-11.698, 41.067-18.505, 64.878-18.505C 393.059-60.785, 448-5.814, 448,61.99
	C 447.997,87.621, 440.16,111.452, 426.698,131.152z M 242.148,8.103c-65.367-3.405-95.956,11.057-123.978,37.355
	c-31.294,29.371-18.723,62.872, 6.772,64.576c 25.482,1.701, 40.781-28.886, 54.381-37.394c 13.583-8.477, 65.27-27.79, 92.57,3.419
	c 29.729,33.975-19.77,51.555-56.052,56.877c-51.803,7.67-117.206,35.693-112.118,90.919c 5.089,55.19, 46.884,83.487, 90.869,87.479
	c 56.067,5.090, 92.567-8.494, 121.437-33.127c 33.381-28.463, 15.319-60.282-5.949-62.842c-21.186-2.545-44.979,46.816-91.692,47.558
	c-48.149,0.756-80.69-50.103-21.25-64.561c 59.47-14.442, 123.156-20.375, 146.091-74.74
	C 366.179,69.251, 307.569,11.512, 242.148,8.103z"  />
<glyph unicode="&#xe05b;" d="M 373.35,384L 74.676,384 C 33.606,384, 0.001,350.397, 0.001,309.328l0-205.326 L 7,132l 14,0 l 7-28l-7-28L 7,76 l-7,27.998l0-93.32 
	C 0.001-30.42, 33.606-64, 74.676-64l 298.674,0 C 414.422-64, 448-30.42, 448,10.678L 448,103.516 C 448,72.857, 422.152,48, 390.256,48
	c-1.030,0-159.93,0.077-160.077,0.092c-3.448,0.333-6.179,3.163-6.179,6.561L 224,230.84 c0,3.235, 1.145,4.905, 5.503,6.526
	c 11.216,4.171, 23.859,6.634, 36.889,6.634c 53.247,0, 96.903-39.245, 101.499-89.275c 6.876,2.772, 14.428,4.312, 22.34,4.312
	c 31.896,0, 57.768-24.86, 57.768-55.52L 448,309.327 C 448,350.397, 414.418,384, 373.35,384z M 77,48L 63,48 l-7,56l 7,56l 14,0 l 7-56L 77,48z M 133,48l-14,0 
	l-7,71.203L 119,188l 14,0 l 7-70L 133,48z M 189,48l-14,0 l-7,98.096L 175,244l 14,0 l 7-97.904L 189,48z"  />
<glyph unicode="&#xe05c;" d="M 378,244c-15.4,0-28-12.6-28-28l0-112 c0-15.4, 12.6-28, 28-28s 28,12.6, 28,28L 406,216 C 406,231.4, 393.4,244, 378,244zM 42,244c-15.4,0-28-12.6-28-28l0-112 c0-15.4, 12.6-28, 28-28s 28,12.6, 28,28L 70,216 C 70,231.4, 57.399,244, 42,244zM 84,62c0-23.196, 18.804-42, 42-42l 14,0 l0-56 c0-15.4, 12.6-28, 28-28s 28,12.6, 28,28l0,56 l 28,0 l0-56 c0-15.4, 12.601-28, 28-28s 28,12.6, 28,28
		l0,56 l 14,0 c 23.196,0, 42,18.804, 42,42L 336,216 L 84,216 L 84,62 zM 261.887,344.846l 17.72,34.040c 0.889,1.707, 0.219,3.832-1.488,4.721s-3.832,0.219-4.721-1.488l-17.989-34.556
		C 241.322,353.008, 226.012,356, 210,356c-16.011,0-31.322-2.992-45.411-8.438L 146.601,382.118c-0.889,1.707-3.013,2.377-4.721,1.488
		s-2.377-3.013-1.488-4.721l 17.719-34.041c-39.651-17.945-68.355-55.818-73.334-100.846l 250.443,0 
		C 330.243,289.028, 301.538,326.9, 261.887,344.846z M 154,265.7c-11.211,0-20.3,9.089-20.3,20.3c0,11.211, 9.089,20.3, 20.3,20.3
		s 20.3-9.089, 20.3-20.3C 174.299,274.789, 165.211,265.7, 154,265.7z M 266,265.7c-11.211,0-20.301,9.089-20.301,20.3
		c0,11.211, 9.090,20.3, 20.301,20.3s 20.299-9.089, 20.299-20.3C 286.299,274.789, 277.211,265.7, 266,265.7z"  />
<glyph unicode="&#xe05d;" d="M 180.351,160.038c-20.872,10.727-41.163,16.169-60.322,16.169c-2.606,0-5.229-0.079-7.852-0.31
		c-24.448-2.023-46.778-8.473-61.141-13.487c-3.81-1.399-7.715-2.877-11.738-4.509L0,21.666
		c 26.995,9.989, 50.878,14.848, 72.743,14.848c 35.37,0, 61.043-13.216, 82.246-26.821c 10.046,34.089, 34.144,116.414, 41.336,141.017
		C 191.097,153.897, 185.792,157.084, 180.351,160.038zM 231.152,125.407l-39.57-137.44c 11.739-6.725, 51.23-28.022, 81.468-28.022c 24.409,0, 51.735,6.255, 83.49,19.159
		l 37.781,132.114c-25.651-8.278-50.258-12.477-73.266-12.477C 279.077,98.741, 249.693,112.347, 231.152,125.407zM 128.11,222.654c 33.739-0.349, 58.691-13.216, 79.37-26.47l 40.579,138.838c-8.551,4.898-30.978,17.104-47.188,21.262
		c-10.669,2.487-21.884,3.769-33.777,3.769c-22.661-0.427-47.42-6.101-75.639-17.412l-38.692-135.886
		c 28.354,10.691, 52.782,15.899, 75.288,15.899C 128.070,222.654, 128.11,222.654, 128.11,222.654zM 448,297.321c-25.731-9.989-50.841-15.079-74.825-15.079c-40.113,0-69.69,13.913-88.854,27.285L 244.094,170.299
		c 27.014-17.372, 56.127-26.197, 86.678-26.197c 24.915,0, 50.724,5.985, 76.765,17.801l-0.080,0.972l 1.634,0.388L 448,297.321z"  />
<glyph unicode="&#xe05e;" d="M 346.28,145.96c-0.566,56.736, 46.269,83.946, 48.362,85.298c-26.317,38.509-67.309,43.784-81.918,44.394
		c-34.887,3.532-68.073-20.54-85.779-20.54c-17.661,0-44.983,20.017-73.916,19.491c-38.026-0.565-73.088-22.11-92.668-56.166
		c-39.508-68.555-10.118-170.117, 28.389-225.718c 18.816-27.214, 41.253-57.783, 70.711-56.691c 28.368,1.132, 39.096,18.357, 73.393,18.357
		c 34.297,0, 43.937-18.357, 73.959-17.793c 30.526,0.567, 49.867,27.737, 68.553,55.036c 21.608,31.574, 30.505,62.142, 31.029,63.711
		C 405.719,55.648, 346.87,78.192, 346.28,145.96zM 289.871,312.459C 305.506,331.428, 316.060,357.746, 313.181,384c-22.522-0.917-49.822-15.002-65.979-33.928
		c-14.5-16.79-27.19-43.586-23.789-69.316C 248.554,278.794, 274.219,293.533, 289.871,312.459z"  />
<glyph unicode="&#xe05f;" d="M 373.354,384L 74.676,384 C 33.604,384, 0.001,350.394, 0.001,309.325l0-298.649 C 0.001-30.422, 33.604-64, 74.676-64L 373.354-64 
	C 414.422-64, 448-30.422, 448,10.676L 448,309.326 C 447.996,350.394, 414.418,384, 373.354,384z M 320.126,23.199
	c-13.192-6.207-25.168-10.582-35.875-13.098c-10.717-2.489-22.295-3.744-34.738-3.744c-14.136,0-22.477,1.775-33.332,5.332
	c-10.854,3.582-20.125,8.694-27.781,15.256c-7.682,6.619-12.988,13.649-15.954,21.085c-2.968,7.439-4.443,18.24-4.443,32.377L 168.002,188.821 
	l-41.998,0 l0,43.779 c 12.138,3.938, 26.222,9.596, 34.862,16.953c 8.68,7.381, 15.627,16.213, 20.862,26.549
	c 5.252,10.31, 8.859,23.461, 10.829,39.404l 43.969,0 L 236.525,244 L 308,244 l0-55.18 l-71.478,0 l0-79.27 c0-17.938-0.231-28.274, 1.669-33.359
	c 1.887-5.058, 6.618-10.307, 11.77-13.344c 6.849-4.102, 14.658-6.151, 23.461-6.151c 15.656,0, 31.228,5.086, 46.703,15.258L 320.126,23.199 
	L 320.126,23.199z"  />
<glyph unicode="&#xe060;" d="M 248.349,61.599c-35.851-16.677-69.194-16.501-91.586-14.884c-26.71,1.929-48.194,9.242-57.637,15.633
		c-5.819,3.94-13.73,2.416-17.671-3.405c-3.939-5.82-2.415-13.731, 3.405-17.671c 15.18-10.275, 42.030-17.917, 70.071-19.941
		c 4.754-0.343, 9.974-0.559, 15.595-0.559c 24.405,0, 55.399,2.326, 88.559,17.749c 6.372,2.965, 9.134,10.532, 6.17,16.905
		C 262.291,61.8, 254.722,64.558, 248.349,61.599zM 389.79,80.455c 1.219,110.551, 12.583,319.465-199.049,302.58C-18.21,366.217, 37.194,145.487, 34.080,71.558
		C 31.32,32.451, 18.339-15.351,0-64l 56.481,0 c 5.804,20.616, 10.073,41.002, 11.914,60.441c 3.405-2.375, 7.047-4.67, 10.935-6.869
		c 6.325-3.727, 11.762-8.682, 17.517-13.927c 13.45-12.258, 28.696-26.151, 58.499-27.892c 2-0.115, 4.014-0.172, 5.983-0.172
		c 30.142,0, 50.756,13.192, 67.322,23.792c 7.936,5.080, 14.795,9.468, 21.247,11.573c 18.336,5.74, 34.358,15.005, 46.333,26.798
		c 1.871,1.841, 3.606,3.735, 5.233,5.665c 6.67-24.447, 15.802-51.957, 25.938-79.408L 448-64 
		C 419.049-19.277, 389.184,24.539, 389.79,80.455z M 54.298,140.596c0,0.007,0,0.013-0.001,0.020
		c-2.076,36.077, 15.186,66.427, 38.555,67.785c 23.368,1.359, 43.995-26.787, 46.071-62.865c0-0.006, 0.002-0.013, 0.002-0.019
		c 0.112-1.945, 0.161-3.87, 0.162-5.778c-7.404-1.862-14.084-4.566-20.069-7.713c-0.023,0.268-0.040,0.532-0.067,0.801
		c0,0.004,0,0.008,0,0.011c-1.999,20.479-12.938,35.945-24.435,34.544c-11.498-1.402-19.198-19.141-17.199-39.619
		c0-0.004, 0.002-0.008, 0.002-0.011c 0.871-8.928, 3.442-16.903, 7.018-22.944c-0.89-0.702-3.405-2.543-6.303-4.662
		c-2.174-1.59-4.821-3.525-8.012-5.876C 61.324,105.685, 55.363,122.085, 54.298,140.596z M 291.051,51.422
		c-0.831-19.069-25.772-37.009-48.817-44.207l-0.13-0.042c-9.581-3.107-18.125-8.575-27.171-14.363
		c-15.195-9.723-30.908-19.779-53.603-19.779c-1.489,0-3.016,0.045-4.518,0.13c-20.788,1.215-30.512,10.076-42.822,21.296
		c-6.493,5.918-13.208,12.037-21.864,17.117l-0.185,0.107c-18.684,10.546-30.28,23.661-31.022,35.085
		c-0.368,5.679, 2.16,10.595, 7.517,14.612c 11.653,8.738, 19.459,14.447, 24.624,18.225c 5.736,4.195, 7.467,5.46, 8.75,6.678
		c 0.917,0.869, 1.909,1.832, 2.977,2.871c 10.695,10.401, 28.595,27.808, 56.066,27.808c 16.802,0, 35.393-6.475, 55.199-19.207
		c 9.329-6.072, 17.448-8.875, 27.729-12.425c 7.068-2.44, 15.080-5.207, 25.809-9.802l 0.173-0.072
		C 279.773,71.341, 291.592,63.833, 291.051,51.422z M 285.533,96.21c-1.925,0.969-3.926,1.89-6.013,2.75
		c-9.671,4.137-17.427,6.945-23.859,9.187c 3.551,6.954, 5.758,15.627, 5.961,25.043c0,0.004,0,0.010,0,0.013
		c 0.493,22.914-11.063,41.517-25.811,41.552c-14.748,0.034-27.103-18.512-27.596-41.425c0-0.004,0-0.008,0-0.012
		c-0.017-0.75-0.018-1.494-0.009-2.236c-9.083,4.179-18.016,7.214-26.76,9.083c-0.040,0.861-0.089,1.72-0.107,2.59
		c0,0.007,0,0.016,0,0.022c-0.848,41.743, 24.763,76.296, 57.205,77.176c 32.441,0.881, 59.425-32.244, 60.275-73.986
		c0-0.008,0-0.017,0-0.023C 299.202,127.068, 294.156,109.69, 285.533,96.21z"  />
<glyph unicode="&#xe061;" d="M 226.95,145.692 L 278.588,7.905 C 278.928,7.096 279.346,6.352 279.791,5.65 C 262.329-0.336 243.564-3.625 224.002-3.625 C 207.511-3.625 191.595-1.271 176.538,3.042 L 226.95,145.692 ZM 392,160.003 C 392,99.641 358.411,46.94 308.464,18.577 L 359.776,163.071 C 369.363,186.414 372.553,205.080 372.553,221.674 C 372.553,227.7 372.143,233.289 371.421,238.5 C 384.536,215.198 392,188.453 392,160.003 ZM 56,160.004 C 56,183.727 61.225,206.246 70.548,226.594 L 150.688,12.751 C 94.641,39.267 56,95.242 56,160.004 ZM 83.634,249.877 C 113.672,294.292 165.309,323.625 224.004,323.625 C 267.74,323.625 307.563,307.339 337.451,280.664 C 336.726,280.707 336.020,280.796 335.274,280.796 C 318.771,280.796 307.061,266.795 307.061,251.757 C 307.061,238.272 315.051,226.865 323.564,213.381 C 329.951,202.485 337.412,188.484 337.412,168.257 C 337.412,154.256 331.884,138.003 324.63,115.363 L 307.869,60.836 L 247.152,236.719 C 257.266,237.234 266.38,238.272 266.38,238.272 C 275.433,239.317 274.368,252.274 265.31,251.757 C 265.31,251.757 238.095,249.678 220.531,249.678 C 204.023,249.678 176.285,251.757 176.285,251.757 C 167.225,252.273 166.162,238.794 175.219,238.272 C 175.219,238.272 183.789,237.237 192.84,236.719 L 219.013,166.872 L 182.243,59.485 L 121.066,236.719 C 131.19,237.236 140.295,238.272 140.295,238.272 C 149.34,239.317 148.271,252.274 139.22,251.757 C 139.22,251.757 112.013,249.678 94.446,249.678 C 91.293,249.678 87.576,249.753 83.634,249.877 ZM 372.75,384L 75.25,384 C 33.863,384,0,350.137,0,308.75l0-297.5 c0-41.387, 33.863-75.25, 75.25-75.25l 297.5,0 c 41.387,0, 75.25,33.863, 75.25,75.25L 448,308.75 C 448,350.137, 414.137,384, 372.75,384z M 420,160
		c0-108.248-87.752-196-196-196S 28,51.752, 28,160S 115.752,356, 224,356S 420,268.248, 420,160z"  />
<glyph unicode="&#xe062;" d="M 373.34,384L 74.659,384 C 33.427,384,0,350.567,0,309.327l0-298.653 C0-30.568, 33.427-64, 74.659-64l 298.68,0 
	c 41.234,0, 74.659,33.432, 74.659,74.673L 448,309.327C 448,350.567, 414.573,384, 373.34,384z M 392,100.457
	C 392,40.524, 343.225-8, 282.868-8L 165.26-8 C 104.948-8, 56,40.524, 56,100.457L 56,219.5 c 0.042,59.938, 48.947,108.5, 109.26,108.5l 55.067,0 
	C 280.682,328, 329.002,282.937, 329,223c 0.788-11.241, 10.903-21, 22.44-21l 0.392,0 l 18.443,0 C 382.339,202, 392,189.341, 392,177.363L 392,100.457 zM 308,104c0-15.4-12.6-28-28-28L 168,76 c-15.4,0-28,12.6-28,28l0,0c0,15.4, 12.6,28, 28,28l 112,0 C 295.4,132, 308,119.4, 308,104
	L 308,104zM 252,216c0-15.4-12.6-28-28-28l-56,0 c-15.4,0-28,12.6-28,28l0,0c0,15.4, 12.6,28, 28,28l 56,0 C 239.4,244, 252,231.4, 252,216L 252,216
	z"  />
<glyph unicode="&#xe063;" d="M 115.269,51.776c0-11.835, 10.016-17.755, 30.042-17.755c 17.528,0, 26.288,6.143, 26.288,18.434
		c0,11.61-9.558,17.411-28.675,17.411C 124.485,69.868, 115.269,63.839, 115.269,51.776zM 373.34,384L 74.676,384 C 33.605,384,0,350.396,0,309.324l0-298.649 C0-30.422, 33.605-64, 74.676-64l 298.664,0 
		C 414.407-64, 448-30.422, 448,10.676L 448,309.324 C 448,350.396, 414.408,384, 373.34,384z M 208.131,205.068
		c-3.187-1.139-7.738-2.388-13.655-3.756c 1.82-5.235, 2.733-10.129, 2.733-14.68c0-14.565-4.383-27.255-13.144-38.068
		c-8.763-10.81-20.087-17.24-33.97-19.288c-9.102-1.368-13.653-6.261-13.653-14.682c0-2.958, 1.478-5.919, 4.438-8.877
		c 3.869-4.325, 9.558-7.058, 17.070-8.196c 32.546-5.006, 48.819-18.547, 48.819-40.624c0-35.281-21.054-52.921-63.158-52.921
		c-17.3,0-31.524,3.074-42.675,9.218c-14.113,7.738-21.165,19.915-21.165,36.531c0,19.12, 10.584,32.207, 31.747,39.26l0,0.682 
		c-7.737,4.779-11.605,12.062-11.605,21.851c0,12.745, 3.642,20.713, 10.924,23.897l0,0.683 c-7.283,2.504-13.77,8.195-19.46,17.073
		c-6.372,9.56-9.559,19.801-9.559,30.726c0,16.388, 5.806,30.043, 17.409,40.968c 11.154,10.244, 24.468,15.363, 39.946,15.363
		c 11.154,0, 21.507-2.729, 31.067-8.191c 10.924,0, 23.556,2.73, 37.899,8.191L 208.131,205.068L 208.131,205.068z M 263.453,86.94
		l-38.581,0 c 0.456,4.551, 0.682,12.287, 0.682,23.215L 225.553,216.333 c0,10.699-0.228,18.097-0.682,22.189l 38.581,0 
		c-0.456-4.324-0.683-11.493-0.683-21.509l0-104.809 C 262.769,100.595, 262.998,92.173, 263.453,86.94z M 260.889,272.664
		c-4.665-5.007-10.186-7.508-16.558-7.508c-6.6,0-12.232,2.502-16.899,7.508c-4.666,5.010-7.001,10.925-7.001,17.753
		c0,7.059, 2.335,13.086, 7.001,18.098c 4.666,5.006, 10.299,7.511, 16.899,7.511c 6.372,0, 11.893-2.505, 16.558-7.511
		c 4.666-5.012, 6.999-11.038, 6.999-18.098C 267.888,283.589, 265.555,277.673, 260.889,272.664z M 368.239,91.379
		c-8.424-4.554-18.553-6.828-30.388-6.828c-16.612,0-28.109,5.915-34.479,17.751c-4.782,8.877-7.169,22.873-7.169,41.991l0,61.112 
		l 0.34,0 l0,0.683 l-5.121,0.342c-2.959,0-6.83-0.342-11.609-1.025L 279.814,238.523 l 16.727,0 l0,13.314 c0,6.374-0.34,11.498-1.024,15.365l 39.602,0 
		c-0.678-4.323-1.022-9.216-1.022-14.679l0-13.999 l 29.7,0 l0-33.115 c-1.137,0-3.242,0.113-6.316,0.34
		c-3.073,0.228-5.974,0.344-8.705,0.344l-14.68,0 l0-63.501 c0-15.253, 5.009-22.877, 15.021-22.877c 7.055,0, 13.43,1.933, 19.122,5.803
		L 368.239,91.379 L 368.239,91.379zM 140.532,208.822c-14.34,0-21.509-8.424-21.509-25.264c0-15.707, 7.17-23.558, 21.509-23.558
		c 13.885,0, 20.826,7.966, 20.826,23.899c0,6.602-1.593,12.291-4.778,17.072C 152.709,206.204, 147.36,208.822, 140.532,208.822z"  />
<glyph unicode="&#xe064;" d="M 132.966,18.246 C 144.841,18.246 156.497,23.993 163.579,34.615 C 174.837,51.504 170.273,74.32 153.386,85.579 L 124.478,104.85 C 129.426,106.197 134.626,106.93 140,106.93 C 172.547,106.93 198.93,80.547 198.93,48 C 198.93,15.453 172.546-10.93 139.999-10.93 C 108.322-10.93 82.492,14.065 81.134,45.408 L 112.614,24.422 C 118.88,20.245 125.961,18.246 132.966,18.246 ZM 373.336,384 C 414.407,384 448,350.395 448,309.324 L 448,10.674 C 448-30.423 414.407-64 373.336-64 L 74.676-64 C 33.605-64 0-30.422 0,10.673 L 0,99.498 L 53.084,64.11 C 47.986,36.471 56.119,6.871 77.495-14.505 C 112.016-49.025 167.983-49.025 202.505-14.505 C 223.709,6.699 231.883,35.996 227.038,63.443 L 336.001,160.999 L 336,161 C 356.234,163.904 375.732,173.138 391.297,188.703 C 429.568,226.974 429.568,289.025 391.297,327.296 C 353.025,365.568 290.975,365.568 252.703,327.296 C 237.138,311.731 227.904,292.233 225,272 L 225,272 L 135.446,136.274 C 121.513,135.56 107.719,131.565 95.316,124.29 L 0,187.835 L 0,309.324 C 0,350.395 33.604,384 74.675,384 L 373.336,384 ZM 392,258c0,38.66-31.34,70-70,70s-70-31.34-70-70s 31.34-70, 70-70S 392,219.34, 392,258z M 280,258
		c0,23.196, 18.804,42, 42,42s 42-18.804, 42-42s-18.804-42-42-42S 280,234.804, 280,258z"  />
<glyph unicode="&#xe065;" d="M 224,20.047c-8.38,0-16.76,4.338-25.437,13.016c-3.417,3.417-3.417,8.957,0,12.375c 3.417,3.416, 8.957,3.416, 12.375,0
		C 216.278,40.096, 220.551,37.5, 224,37.5c 3.448,0, 7.722,2.596, 13.063,7.937c 3.418,3.416, 8.957,3.416, 12.375,0
		c 3.417-3.417, 3.417-8.957,0-12.375C 240.76,24.385, 232.38,20.047, 224,20.047zM 0,154.097 C 0,132.269 1.866,112.481 5.6,94.736 C 9.334,76.991 14.584,61.6 21.35,48.566 C 28.116,35.532 36.672,24.108 47.016,14.292 C 57.361,4.477 68.599-3.61 80.733-9.971 C 92.866-16.33 106.749-21.475 122.383-25.399 C 138.016-29.326 153.921-32.074 170.099-33.644 C 186.277-35.215 204.089-36 223.533-36 C 242.977-36 260.826-35.217 277.082-33.646 C 293.338-32.076 309.283-29.327 324.915-25.401 C 340.548-21.475 354.471-16.332 366.682-9.972 C 378.892-3.612 390.21,4.477 400.631,14.291 C 411.054,24.106 419.649,35.53 426.415,48.564 C 433.183,61.599 438.472,76.99 442.283,94.735 C 446.093,112.48 447.999,132.267 447.999,154.095 C 447.999,193.198 435.865,226.882 411.599,255.149 C 412.999,258.919 414.204,263.237 415.215,268.105 C 416.225,272.974 417.198,279.844 418.131,288.717 C 419.066,297.59 418.715,307.837 417.082,319.457 C 415.448,331.079 412.377,342.935 407.865,355.027 L 404.365,355.735 C 402.033,356.206 398.222,356.049 392.933,355.262 C 387.645,354.477 381.461,353.065 374.384,351.023 C 367.307,348.982 358.167,344.938 346.966,338.892 C 335.767,332.847 323.945,325.19 311.5,315.925 C 290.344,322.364 261.179,329.101 224,329.101 C 186.823,329.101 157.578,322.365 136.268,315.926 C 123.823,325.192 111.962,332.808 100.684,338.776 C 89.406,344.744 80.384,348.827 73.617,351.025 C 66.85,353.223 60.589,354.637 54.834,355.264 C 49.078,355.892 45.383,356.089 43.75,355.853 C 42.117,355.618 40.912,355.343 40.134,355.029 C 35.621,342.936 32.511,331.080 30.799,319.458 C 29.088,307.838 28.699,297.63 29.633,288.837 C 30.566,280.042 31.577,273.131 32.666,268.107 C 33.756,263.082 35,258.763 36.4,255.151 C 12.134,227.042 0,193.358 0,154.097 Z M 59.734,104.261 C 59.734,129.645 69.067,152.665 87.734,173.323 C 93.335,179.625 99.83,184.397 107.218,187.634 C 114.607,190.873 123.007,192.712 132.418,193.149 C 141.83,193.587 150.812,193.499 159.368,192.887 C 167.924,192.273 178.502,191.442 191.102,190.392 C 203.701,189.341 214.59,188.816 223.768,188.816 C 232.945,188.816 243.835,189.341 256.434,190.392 C 269.036,191.442 279.613,192.273 288.168,192.887 C 296.726,193.499 305.707,193.587 315.119,193.149 C 324.531,192.711 332.97,190.873 340.436,187.634 C 347.903,184.397 354.436,179.625 360.036,173.323 C 378.702,152.665 388.036,129.645 388.036,104.261 C 388.036,89.38 386.481,76.119 383.369,64.477 C 380.258,52.834 376.33,43.076 371.585,35.199 C 366.841,27.32 360.189,20.666 351.636,15.24 C 343.080,9.812 334.796,5.611 326.786,2.636 C 318.775-0.339 308.43-2.66 295.753-4.323 C 283.073-5.984 271.719-6.993 261.684-7.342 C 251.65-7.692 239.012-7.867 223.768-7.867 C 208.524-7.867 195.924-7.691 185.968-7.342 C 176.012-6.993 164.696-5.984 152.018-4.323 C 139.34-2.66 128.996-0.34 120.984,2.636 C 112.974,5.611 104.69,9.812 96.135,15.24 C 87.579,20.667 80.929,27.32 76.184,35.199 C 71.439,43.076 67.512,52.834 64.401,64.477 C 61.29,76.119 59.734,89.38 59.734,104.261 ZM 112,117.998A28,42 3420 1 1 168,117.99799999999999A28,42 3420 1 1 112,117.99799999999999zM 280,117.998A28,42 3420 1 1 336,117.99799999999999A28,42 3420 1 1 280,117.99799999999999z"  />
<glyph unicode="&#xe066;" d="M 235.704,158.283 C 149.362,130.373 103.416,54.299 99.623,47.805 C 72.885,77.486 56.585,116.744 56.585,159.743 C 56.585,161.456 56.619,163.16 56.67,164.86 C 63.996,164.71 145.124,163.664 228.729,188.685 C 233.521,179.305 238.099,169.784 242.302,160.274 C 240.087,159.65 237.887,158.988 235.704,158.283 ZM 334.979,284.974 C 331.968,280.684 306.766,246.81 247.236,224.499 C 219.803,274.901 189.395,316.308 184.768,322.504 C 197.358,325.539 210.493,327.159 224.001,327.159 C 266.539,327.159 305.414,311.204 334.979,284.974 ZM 214.895,214.43 C 136.584,193.635 67.61,193.934 60.122,194.033 C 70.978,245.983 105.988,289.16 152.825,311.251 C 157.238,305.198 187.156,263.741 214.895,214.43 ZM 252.578,132.219 C 252.945,132.347 253.313,132.465 253.681,132.591 C 277.185,71.514 286.906,20.324 289.397,5.635 C 269.295-2.926 247.193-7.669 224.001-7.669 C 185.298-7.669 149.625,5.536 121.24,27.672 C 124.253,33.831 158.149,99.314 252.578,132.219 ZM 372.75,384L 75.25,384 C 33.863,384,0,350.137,0,308.75l0-297.5 c0-41.387, 33.863-75.25, 75.25-75.25l 297.5,0 c 41.387,0, 75.25,33.863, 75.25,75.25L 448,308.75 C 448,350.137, 414.137,384, 372.75,384z M 224.001-36
		C 115.925-36, 28,51.924, 28,160C 28,268.075, 115.925,356, 224.001,356C 332.077,356, 420,268.075, 420,160
		C 420,51.924, 332.077-36, 224.001-36zM 285.016,140.328 C 337.479,148.725 383.569,134.977 389.298,133.171 C 381.834,86.588 355.098,46.359 317.539,20.964 C 315.823,31.148 306.913,80.155 285.016,140.328 ZM 260.108,199.604 C 322.007,224.876 350.061,260.838 353.59,265.614 C 376.905,237.126 391.025,200.841 391.395,161.326 C 385.875,162.494 330.526,173.72 274.82,166.715 C 273.647,169.581 272.446,172.461 271.214,175.355 C 267.739,183.519 264.003,191.63 260.108,199.604 Z"  />
<glyph unicode="&#xe067;" d="M 372.75,384L 75.25,384 C 33.863,384,0,350.137,0,308.75l0-297.5 c0-41.387, 33.863-75.25, 75.25-75.25l 297.5,0 c 41.387,0, 75.25,33.863, 75.25,75.25L 448,308.75 C 448,350.137, 414.137,384, 372.75,384z M 420,48L 252,48 
		L 252,151.25 c0,0, 30.771-0.438, 47.25-17.5l0-29.75 l 67.554,0 c-5.171,16.573-16.217,32.861-31.994,46.666C 307.695,174.391, 263.413,186.25, 224,186.25l0-138.25 L 28,48 l0,42 
		c0,18.986, 6.409,37.86, 18.534,54.583c 10.76,14.839, 25.753,27.927, 44.564,38.9c 22.064,12.87, 48.371,22.185, 76.902,27.465L 168,272 l 56,0 
		l0-56 c 64.313,0, 96.955-11.548, 132.903-32.518c 18.811-10.973, 33.804-24.061, 44.564-38.9C 413.591,127.86, 420,108.986, 420,90L 420,48 zM 87.321,104 C 92.492,120.573 103.539,136.861 119.314,150.666 C 133.113,162.739 149.773,172.185 168,178.559 L 168,104 L 87.321,104 Z"  />
<glyph unicode="&#xe068;" d="M 373.352,384L 74.676,384 C 33.605,384,0,350.395,0,309.327l0-298.649 C0-30.422, 33.605-64, 74.676-64l 298.672,0 
	C 414.419-64, 448-30.42, 448,10.68L 448,309.327 C 448,350.395, 414.419,384, 373.352,384z M 224,356c 30.062,0, 58.539-6.777, 84-18.873L 308,211.511 
	L 170.818,348.693C 187.73,353.45, 205.567,356, 224,356z M 28,160c0,76.951, 44.352,143.532, 108.882,175.606L 186.489,286L 30.313,129.824
	C 28.793,139.661, 28,149.737, 28,160z M 112-0.852c-32.674,22.793-58.084,55.277-72.044,93.297L 112,164.489L 112-0.852 z M 224-36
	c-30.062,0-58.539,6.777-84,18.873L 140,48 l 244.852,0 C 349.434-2.773, 290.601-36, 224-36z M 401.127,76L 336,76 L 336,320.853 
	c 50.773-35.419, 84-94.251, 84-160.853C 420,129.938, 413.223,101.461, 401.127,76z"  />
<glyph unicode="&#xe069;" d="M 373.323,384L 74.677,384 C 33.605,384,0,350.393,0,309.322l0-298.646 C0-30.422, 33.605-64, 74.677-64l 298.646,0 
	C 414.395-64, 448-30.422, 448,10.677L 448,309.322 C 448,350.393, 414.395,384, 373.323,384z M 355.63,192.32
	c-14.857-83.692-97.872-154.567-122.841-170.761c-24.976-16.19-47.755,6.485-56.017,23.622
	c-9.457,19.56-37.804,125.536-45.224,134.321c-7.422,8.767-29.696-8.785-29.696-8.785l-10.803,14.164
	c0,0, 45.23,54.008, 79.642,60.759c 36.489,7.16, 36.435-56.029, 45.211-91.106c 8.487-33.934, 14.192-53.354, 21.602-53.354
	c 7.424,0, 21.605,18.927, 37.123,47.937c 15.547,29.040-0.673,54.692-31.050,36.44C 255.734,258.469, 370.48,275.999, 355.63,192.32z"  />
<glyph unicode="&#xe06a;" d="M 373.352,384L 74.676,384 C 33.605,384,0,350.395,0,309.327l0-298.649 C0-30.422, 33.605-64, 74.676-64l 298.673,0 
	C 414.419-64, 448-30.42, 448,10.68L 448,309.327 C 448,350.395, 414.419,384, 373.352,384z M 126,90c-38.66,0-70,31.34-70,70
	c0,38.66, 31.34,70, 70,70s 70-31.34, 70-70C 196,121.34, 164.66,90, 126,90z M 322,90c-38.661,0-70,31.34-70,70
	c0,38.66, 31.339,70, 70,70s 70-31.34, 70-70C 392,121.34, 360.661,90, 322,90z"  />
<glyph unicode="&#xe06b;" d="M 373.336,384L 74.675,384 C 33.604,384,0,350.395,0,309.324l0-298.65 C0-30.422, 33.605-64, 74.676-64L 373.336-64 
	c 41.071,0, 74.664,33.577, 74.664,74.674L 448,309.324 C 448,350.395, 414.407,384, 373.336,384z M 122.038,20.329C 101.051,20.329, 84,37.257, 84,58.229
	c0,20.862, 17.050,37.98, 38.038,37.98c 21.069,0, 38.089-17.119, 38.089-37.98C 160.126,37.257, 143.106,20.329, 122.038,20.329z
	 M 217.642,20.002c0,35.792-13.916,69.483-39.139,94.694c-25.25,25.266-58.79,39.211-94.458,39.211L 84.046,208.676 
	c 103.973,0, 188.618-84.631, 188.618-188.674L 217.642,20.002L 217.642,20.002z M 314.837,20.002
	c0,127.34-103.538,230.974-230.727,230.974L 84.11,305.772 c 157.501,0, 285.664-128.242, 285.664-285.772L 314.837,20.002L 314.837,20.002z"  />
<glyph unicode="&#xe06c;" d="M 364,328L 84,328 c-46.2,0-84-37.8-84-84l0-168 c0-46.2, 37.8-84, 84-84l 280,0 c 46.2,0, 84,37.8, 84,84L 448,244 C 448,290.2, 410.2,328, 364,328z
	 M 168,48L 168,272 l 140-112L 168,48z"  />
<glyph unicode="&#xe06d;" d="M 373.337,384L 74.675,384 C 33.605,384,0,350.396,0,309.323l0-298.647 C0-30.422, 33.605-64, 74.675-64l 298.662,0 
	C 414.408-64, 448-30.422, 448,10.677L 448,309.323 C 448,350.396, 414.408,384, 373.337,384z M 366.648,234.448
	c 0.144-3.212, 0.214-6.444, 0.214-9.69c0-98.969-74.032-213.092-209.413-213.092c-41.564,0-80.252,12.402-112.825,33.652
	c 5.758-0.695, 11.617-1.047, 17.557-1.047c 34.485,0, 66.219,11.974, 91.409,32.061c-32.207,0.604-59.388,22.258-68.755,52.011
	c 4.495-0.875, 9.105-1.345, 13.848-1.345c 6.713,0, 13.215,0.917, 19.39,2.628c-33.67,6.883-59.041,37.151-59.041,73.437
	c0,0.316,0,0.629, 0.007,0.942c 9.922-5.609, 21.273-8.977, 33.337-9.367c-19.75,13.43-32.743,36.353-32.743,62.338
	c0,13.724, 3.629,26.59, 9.965,37.65c 36.301-45.312, 90.535-75.127, 151.705-78.252c-1.256,5.483-1.907,11.198-1.907,17.069
	c0,41.36, 32.955,74.891, 73.601,74.891c 21.171,0, 40.302-9.094, 53.726-23.65c 16.765,3.358, 32.517,9.59, 46.739,18.175
	c-5.496-17.489-17.165-32.166-32.36-41.436c 14.886,1.81, 29.073,5.836, 42.271,11.792C 393.509,258.198, 381.030,245.006, 366.648,234.448
	z"  />
<glyph unicode="&#xe06e;" d="M 373.338,384L 74.674,384 C 33.605,384,0,350.394,0,309.324l0-298.649 C0-30.423, 33.605-64, 74.674-64l 298.664,0.001
	c 41.071,0, 74.662,33.576, 74.662,74.676L 448,309.324 C 448,350.394, 414.408,384, 373.338,384z M 380.884,160L 308,160 l0-196 l-84,0 L 224,160 l-40.48,0 l0,64.122 L 224,224.122 
	l0,41.644 C 224,322.353, 248.409,356, 314.943,356l 76.669,0 l0-69.374 l-62.619,0 c-18.586,0.031-20.892-9.692-20.892-27.787L 308,224.122l 84,0 
	L 380.884,160z"  />
<glyph unicode="&#xe06f;" d="M 0.353,3.522c-0.107,1.108-0.198,2.218-0.256,3.338C 0.154,5.74, 0.246,4.63, 0.353,3.522zM 103.21,136.748c 40.254-1.198, 67.259,40.555, 60.315,93.274c-6.954,52.71-45.236,95.011-85.491,96.216
		c-40.261,1.194-67.261-39.148-60.31-91.875C 24.672,181.658, 62.94,137.949, 103.21,136.748zM 448,272L 448,309.323 C 448,350.396, 414.408,384, 373.337,384L 74.675,384 C 34.304,384, 1.17,351.523, 0.053,311.407
		c 25.533,22.481, 60.954,41.263, 97.507,41.263c 39.071,0, 156.294,0, 156.294,0l-34.977-29.583l-49.555,0 
		c 32.869-12.602, 50.381-50.804, 50.381-90.003c0-32.921-18.292-61.23-44.139-81.361c-25.219-19.645-30-27.872-30-44.572
		c0-14.253, 27.014-38.5, 41.139-48.47c 41.292-29.11, 54.651-56.137, 54.651-101.262c0-7.187-0.893-14.363-2.654-21.42l 134.637,0 
		C 414.408-64, 448-30.422, 448,10.677L 448,243.999 l-84,0 L 364,160 l-28,0 l0,84 l-83.999,0 l0,28 L 336,272 L 336,356 l 28,0 l0-84 L 448,272 zM 81.325,48.903c 9.456,0, 18.122,0.258, 27.097,0.258c-11.876,11.521-21.274,25.637-21.274,43.041
		c0,10.329, 3.309,20.272, 7.934,29.102c-4.717-0.337-9.533-0.435-14.493-0.435c-32.531,0-60.159,10.533-80.589,27.936l0-29.418 
		l 0.003-88.257C 23.383,42.232, 51.141,48.903, 81.325,48.903zM 1.496-4.175c-0.487,2.388-0.86,4.815-1.112,7.277C 0.635,0.64, 1.010-1.787, 1.496-4.175zM 199.259-32.87c-6.588,25.728-29.949,38.484-62.514,61.061c-11.844,3.82-24.891,6.070-38.891,6.216
		c-39.208,0.422-75.735-15.287-96.345-38.663C 8.475-38.252, 38.713-64, 74.675-64l 125.319,0 c 0.794,4.869, 1.179,9.902, 1.179,15.064
		C 201.174-43.452, 200.503-38.089, 199.259-32.87z"  />
<glyph unicode="&#xe070;" d="M0,356l0-392 l 448,0 L 448,356 L0,356 z M 420-8L 28-8 L 28,328 l 392,0 L 420-8 zM 392,300L 56,300 l0-280 l 336,0 L 392,300 z M 196,160l-28,0 l0-28 l-28,0 l0-28 l-28,0 l0,28 l 28,0 l0,28 l 28,0 l0,28 l-28,0 l0,28 l-28,0 l0,28 l 28,0 l0-28 l 28,0 l0-28 l 28,0 L 196,160 z M 308,104l-84,0 
		l0,28 l 84,0 L 308,104 z"  />
<glyph unicode="&#xe071;" d="M 56,160L 168,272L 112,272L0,160L 112,48L 168,48 	zM 336,272L 280,272L 392,160L 280,48L 336,48L 448,160 	zM 238,328L 168-8L 210-8L 280,328 	z"  />
<glyph unicode="&#xe072;" d="M 84,356l0-336 l 336,0 L 420,356 L 84,356 z M 392,48L 112,48 L 112,328 l 280,0 L 392,48 zM 56-8L 56,272L 28,300L 28-36L 364-36L 336-8 	zM 187.799,84.201L 271.799,168.201L 336,104L 336,272L 168,272L 232.201,207.799L 148.201,123.799 	z"  />
<glyph unicode="&#xe073;" d="M 372.75,384L 75.25,384 C 33.863,384,0,350.137,0,308.75l0-297.5 c0-41.387, 33.863-75.25, 75.25-75.25l 297.5,0 c 41.387,0, 75.25,33.863, 75.25,75.25L 448,308.75 C 448,350.137, 414.137,384, 372.75,384z
	 M 326.601,51.111c-77.682,0-104.623,35.024-118.988,78.577l-14.372,44.903c-10.779,32.78-23.351,58.373-62.862,58.373
	c-27.396,0-55.233-19.757-55.233-74.987c0-43.106, 22.001-70.049, 52.987-70.049c 35.018,0, 58.371,26.044, 58.371,26.044l 14.372-39.063
	c0,0-24.253-23.797-74.987-23.797c-62.865,0-97.891,36.816-97.891,105.072c0,70.946, 35.025,112.704, 101.031,112.704
	c 59.721,0, 89.81-21.553, 108.665-79.928l 14.819-44.899c 10.778-32.782, 29.634-56.579, 74.986-56.579
	c 30.534,0, 46.696,6.737, 46.696,23.349c0,13.024-7.63,22.453-30.531,27.843l-30.537,7.181c-37.264,8.979-52.082,28.288-52.082,58.823
	c0,48.944, 39.515,64.211, 79.925,64.211c 45.802,0, 73.641-16.614, 77.233-57.025l-44.902-5.39
	c-1.797,19.308-13.472,27.392-35.024,27.392c-19.759,0-31.881-8.982-31.881-24.249c0-13.471, 5.837-21.554, 25.591-26.044
	l 28.737-6.284c 38.618-8.983, 59.278-27.843, 59.278-64.213C 420.001,68.172, 382.283,51.111, 326.601,51.111z"  />
<glyph unicode="&#xe074;" d="M 373.352,384L 74.675,384 C 33.604,384,0,350.393,0,309.322l0-298.648 C0-30.42, 33.604-64, 74.675-64l 298.677,0 
	C 414.422-64, 448-30.421, 448,10.674L 448,309.322 C 448,350.393, 414.422,384, 373.352,384z M 420,10.674c0-12.396-4.874-24.098-13.724-32.951
	C 397.428-31.126, 385.736-36, 373.352-36L 224-36 L 224,160 L 28,160 L 28,309.322 c0,12.385, 4.878,24.084, 13.736,32.942C 50.593,351.122, 62.291,356, 74.675,356
	L 224,356 l0-196 l 196,0 L 420,10.674 z"  />
<glyph unicode="&#xe075;" d="M 372.75,384L 75.25,384 C 33.863,384,0,350.137,0,308.75l0-297.5 c0-41.387, 33.863-75.25, 75.25-75.25l 297.5,0 c 41.387,0, 75.25,33.863, 75.25,75.25L 448,308.75 C 448,350.137, 414.137,384, 372.75,384z M 168,20l-56,0 
	L 112,216 l 56,0 L 168,20 z M 140,244c-15.464,0-28,12.536-28,28s 12.536,28, 28,28s 28-12.536, 28-28S 155.464,244, 140,244z M 364,20l-56,0 L 308,132 
	c0,15.464-12.536,28-28,28s-28-12.536-28-28l0-112 l-56,0 L 196,216 l 56,0 l0-34.769 C 263.549,197.096, 281.204,216, 301,216c 34.794,0, 63-31.34, 63-70
	L 364,20 z"  />
<glyph unicode="&#xe076;" d="M 372.75,384L 75.25,384 C 33.863,384,0,350.137,0,308.75l0-297.5 c0-41.387, 33.863-75.25, 75.25-75.25l 297.5,0 c 41.387,0, 75.25,33.863, 75.25,75.25L 448,308.75 C 448,350.137, 414.137,384, 372.75,384z M 224,244
	c-15.439,0-28-12.561-28-28l0-112 c0-46.319-37.682-84-84-84s-84,37.681-84,84l0,56 l 56,0 l0-56 c0-15.439, 12.561-28, 28-28s 28,12.561, 28,28L 140,216 
	c0,46.318, 37.682,84, 84,84c 46.318,0, 84-37.682, 84-77.875l0-27.125 l-35.875-10.5l-20.125,10.5l0,27.125 C 252,231.439, 239.439,244, 224,244z M 420,104
	c0-46.319-37.682-84-84-84s-84,37.681-84,90.125l0,54.25 l 20.125-10.5l 35.875,10.5l0-54.25 c0-21.564, 12.561-34.125, 28-34.125s 28,12.561, 28,28l0,56 l 56,0 L 420,104 z"  />
<glyph unicode="&#xe077;" d="M 448,104 L 448-64 L 0-64 L 0,104 L 56,104 L 56-8 L 392-8 L 392,104 ZM 84,76L 364,76L 364,20L 84,20zM 90.629,136.609L 102.747,191.28L 376.111,130.688L 363.993,76.017zM 122.35,249.006L 146.016,299.758L 399.78,181.43L 376.114,130.678zM 433.878,225.854 L 399.787,181.426 L 177.649,351.88 L 202.296,384 L 227.777,384 Z"  />
<glyph unicode="&#xe078;" d="M 373.341,384L 74.659,384 C 33.424,384,0,350.566,0,309.325l0-298.651 C0-30.567, 33.424-64, 74.659-64l 298.682,0 
	C 414.575-64, 448-30.567, 448,10.674L 448,309.325 C 448,350.566, 414.575,384, 373.341,384z M 245.719,84.698
	c-20.353,1.581-28.893,11.662-44.846,21.354c-8.776-46.015-19.496-90.133-51.248-113.176
	c-9.802,69.548, 14.391,121.784, 25.624,177.237c-19.156,32.246, 2.306,97.14, 42.709,81.145
	c 49.711-19.665-43.050-119.878, 19.22-132.394c 65.021-13.067, 91.564,112.813, 51.25,153.748
	c-58.257,59.109-169.574,1.348-155.886-83.281c 3.331-20.69, 24.707-26.967, 8.542-55.52c-37.284,8.265-48.409,37.67-46.977,76.874
	c 2.305,64.17, 57.655,109.097, 113.175,115.31c 70.212,7.859, 136.109-25.772, 145.209-91.821
	C 362.734,159.63, 320.795,78.894, 245.719,84.698z"  />
<glyph unicode="&#xe079;" d="M 112.997,188.638 L 48.889,299.676 C 89.934,351.067 153.116,384 224,384 C 306.002,384 377.698,339.928 416.733,274.187 L 233.958,274.187 C 230.675,274.472 227.356,274.625 224,274.625 C 170.68,274.625 125.747,238.031 112.997,188.638 ZM 304.196,241.812 L 432.585,241.812 C 442.534,216.468 448,188.873 448,160 C 448,37.139 349.081-62.602 226.544-63.968 L 318.154,94.704 C 331.051,113.244 338.625,135.753 338.625,160 C 338.625,192.012 325.428,220.996 304.196,241.812 ZM 142.625,160 C 142.625,204.87 179.13,241.375 224,241.375 C 268.87,241.375 305.375,204.87 305.375,160 C 305.375,115.13 268.87,78.625 224,78.625 C 179.13,78.625 142.625,115.13 142.625,160 ZM 254.705,49.557 L 190.577-61.515 C 82.719-45.378 0,47.648 0,160 C 0,199.908 10.449,237.37 28.742,269.823 L 120.193,111.424 C 138.51,72.438 178.151,45.375 224,45.375 C 234.631,45.375 244.928,46.836 254.705,49.557 Z"  />
</font>
</defs>
</svg>
